<?xml version="1.0" encoding="UTF-8" standalone="no"?>
<!-- Created with Inkscape (http://www.inkscape.org/) -->

<svg
   width="1080"
   height="1400"
   viewBox="0 0 285.75001 370.41666"
   version="1.1"
   id="svg1"
   xml:space="preserve"
   inkscape:version="1.4.3 (0d15f75, 2025-12-25)"
   sodipodi:docname="pomdog-logo-lockup.svg"
   xmlns:inkscape="http://www.inkscape.org/namespaces/inkscape"
   xmlns:sodipodi="http://sodipodi.sourceforge.net/DTD/sodipodi-0.dtd"
   xmlns="http://www.w3.org/2000/svg"
   xmlns:svg="http://www.w3.org/2000/svg"><sodipodi:namedview
     id="namedview1"
     pagecolor="#ffffff"
     bordercolor="#000000"
     borderopacity="0.25"
     inkscape:showpageshadow="2"
     inkscape:pageopacity="0.0"
     inkscape:pagecheckerboard="0"
     inkscape:deskcolor="#d1d1d1"
     inkscape:document-units="mm"
     showgrid="false"
     inkscape:zoom="0.39420244"
     inkscape:cx="800.35019"
     inkscape:cy="742.00454"
     inkscape:window-width="1920"
     inkscape:window-height="1129"
     inkscape:window-x="-8"
     inkscape:window-y="-8"
     inkscape:window-maximized="1"
     inkscape:current-layer="layer1" /><defs
     id="defs1" /><g
     inkscape:label="logo_lockup"
     inkscape:groupmode="layer"
     id="layer1"
     transform="translate(29.75364,-15.165651)"><g
       inkscape:label="logo_wordmark"
       id="layer1-5"
       transform="matrix(0.5,0,0,0.5,168.89585,289.95605)"><g
         id="g29"
         inkscape:label="engine"
         transform="matrix(0.55664034,0,0,0.55664034,-174.53435,11.964605)"><path
           style="fill:#21303d;fill-opacity:1"
           d="m 344.56948,291.50008 -0.64614,-0.68777 v -27.12018 -27.12018 l 0.86407,-0.77206 0.86407,-0.77206 h 18.6693 18.66931 l 0.7734,0.77339 0.77339,0.7734 v 4.25369 c 0,3.9009 -0.0439,4.29757 -0.52916,4.78285 -0.51127,0.51126 -0.89839,0.52996 -11.44323,0.55264 -6.00274,0.0129 -11.56891,0.0619 -12.36927,0.10882 -0.80037,0.0469 -1.96123,0.0959 -2.57969,0.10882 l -1.12448,0.0235 v 5.6577 5.65769 l 0.7276,0.14316 c 0.40019,0.0787 5.65868,0.13335 11.68554,0.12136 l 10.95793,-0.0218 0.61759,0.71799 c 0.58766,0.6832 0.61759,0.91017 0.61759,4.68401 0,3.85806 -0.0177,3.9837 -0.64943,4.61546 l -0.64943,0.64943 -10.66151,0.003 c -5.86383,0.002 -11.11018,0.0771 -11.65857,0.1677 l -0.99706,0.16479 0.071,5.98386 0.071,5.98386 13.37347,0.1323 c 12.13246,0.12001 13.43873,0.17507 14.0767,0.59331 0.9168,0.60103 1.05633,1.44118 0.94823,5.70951 -0.0811,3.20007 -0.13543,3.52096 -0.69056,4.07548 l -0.60257,0.6019 -19.25649,0.0712 -19.2565,0.0712 z"
           id="path22-5"
           inkscape:label="path_15_e" /><path
           style="fill:#21303d;fill-opacity:1"
           d="m 230.64384,291.92636 c -1.49502,-0.63202 -1.41749,0.91834 -1.41606,-28.31626 l 0.001,-26.86248 0.63507,-0.79375 0.63506,-0.79375 h 5.0909 5.09089 l 1.13153,1.32291 c 0.62234,0.72761 3.96068,5.13292 7.41853,9.78959 3.45785,4.65666 7.49283,10.01448 8.96662,11.90625 1.47379,1.89177 3.94695,5.10646 5.49592,7.14375 1.54896,2.03729 3.17378,4.12088 3.6107,4.63021 l 0.7944,0.92604 0.0108,-17.23475 c 0.0103,-16.55932 0.0306,-17.25923 0.51598,-17.85938 0.49028,-0.60615 0.64018,-0.62711 5.06984,-0.70872 2.51054,-0.0462 4.84673,-0.0133 5.19153,0.0733 0.3448,0.0865 0.86089,0.5411 1.14687,1.01014 0.50785,0.8329 0.52,1.47723 0.52096,27.6271 l 9.9e-4,26.77431 -0.63796,0.74236 -0.63797,0.74235 -4.67983,0.0835 c -4.21971,0.0753 -4.73232,0.0363 -5.21372,-0.39687 -0.29364,-0.26421 -1.81807,-2.14726 -3.38762,-4.18455 -1.56955,-2.03729 -4.00898,-5.19245 -5.42095,-7.01146 -1.41197,-1.81901 -4.81636,-6.28386 -7.56531,-9.92188 -8.58331,-11.35932 -10.83136,-14.28534 -11.02783,-14.35362 -0.10465,-0.0364 -0.19201,7.7309 -0.19413,17.26058 l -0.004,17.32669 -0.59826,0.5988 c -0.5713,0.57181 -0.80964,0.60152 -5.28781,0.65906 -2.57925,0.0331 -4.94469,-0.0476 -5.25654,-0.17943 z"
           id="path21"
           inkscape:label="path_14_n" /><path
           style="fill:#21303d;fill-opacity:1"
           d="m 154.3014,291.77143 c -0.39019,-0.21187 -0.76918,-0.59406 -0.84221,-0.84931 -0.073,-0.25525 -0.1705,-12.49455 -0.2166,-27.19846 -0.0796,-25.39127 -0.0599,-26.77094 0.39302,-27.46233 0.26227,-0.40037 0.77604,-0.8417 1.1417,-0.98073 0.36567,-0.13903 2.51434,-0.25277 4.77483,-0.25277 4.8671,0 5.73521,0.25528 6.16811,1.81383 0.38109,1.37198 0.36943,52.593 -0.0122,53.68778 -0.48896,1.40263 -1.45068,1.64984 -6.37156,1.63779 -3.26945,-0.008 -4.49887,-0.10465 -5.03508,-0.3958 z"
           id="path20"
           inkscape:label="path_13_i" /><path
           style="fill:#21303d;fill-opacity:1"
           d="m 60.554585,292.43371 c -6.310729,-1.32677 -11.261556,-3.91838 -15.362232,-8.04167 -5.730141,-5.76175 -8.410103,-12.35852 -8.391945,-20.65692 0.021,-9.59577 4.05784,-17.81268 11.509744,-23.42786 9.176433,-6.91465 22.978078,-8.0402 33.332133,-2.71829 4.670556,2.40062 8.376279,5.90438 7.953725,7.52022 -0.20214,0.77299 -6.821268,6.85197 -7.460796,6.85197 -0.294639,0 -1.328154,-0.71815 -2.296701,-1.59588 -3.733318,-3.38329 -7.417769,-4.79059 -12.537053,-4.78861 -2.368487,9.1e-4 -3.453104,0.1279 -4.894792,0.5731 -3.161816,0.97638 -5.366371,2.28446 -7.540686,4.47427 -3.086907,3.10891 -4.513192,6.21005 -5.049923,10.97994 -0.498574,4.43078 0.408342,8.81079 2.557381,12.351 2.017249,3.32312 6.049615,6.21848 10.309735,7.40271 3.939593,1.09512 9.191394,0.58166 12.998021,-1.27081 1.63323,-0.7948 4.188472,-3.13838 4.598942,-4.218 0.137769,-0.36236 0.250489,-1.72265 0.250489,-3.02286 v -2.36403 H 74.19563 c -7.804297,0 -7.158753,0.45599 -7.158753,-5.05664 0,-3.42589 0.05924,-3.95375 0.505572,-4.50519 l 0.505572,-0.62463 11.202241,-0.0777 c 6.161232,-0.0428 11.467965,-0.0113 11.79274,0.07 1.308037,0.32721 1.445789,1.19583 1.486644,9.37433 0.04393,8.7942 -0.135981,9.88645 -2.076458,12.60636 -1.258341,1.76377 -3.940981,4.38218 -5.800343,5.66145 -2.955292,2.0333 -8.376103,4.11773 -12.412191,4.7728 -2.730937,0.44323 -8.982834,0.29932 -11.686069,-0.26901 z"
           id="path17-1"
           inkscape:label="path_12_g" /><path
           style="fill:#21303d;fill-opacity:1"
           d="m -73.284167,291.38386 -0.701876,-0.83413 v -26.73754 c 0,-26.53775 0.0041,-26.74412 0.545195,-27.61967 0.392067,-0.63438 0.807567,-0.93137 1.479348,-1.05739 1.141662,-0.21418 8.775066,0.0174 9.419283,0.2858 0.254989,0.10623 2.048732,2.29365 3.986095,4.86095 1.937363,2.5673 5.291769,6.98954 7.454235,9.8272 2.162467,2.83765 4.883597,6.40953 6.046955,7.9375 4.501849,5.91278 9.11629,11.7978 9.500987,12.11707 0.354083,0.29386 0.398121,0.1182 0.365942,-1.45973 -0.02012,-0.98659 -0.0068,-8.65647 0.02957,-17.04418 0.06315,-14.56083 0.08899,-15.27862 0.571358,-15.875 0.48911,-0.60471 0.647232,-0.62738 4.960938,-0.71106 6.538695,-0.12685 7.136457,0.16395 7.248094,3.52602 0.03382,1.01865 0.04446,13.12662 0.02363,26.9066 l -0.03787,25.05452 -0.637977,0.74236 -0.637978,0.74235 -4.746356,0.0824 c -5.705092,0.099 -5.043209,0.45627 -9.074142,-4.89734 -1.512235,-2.00846 -4.353745,-5.73533 -6.314466,-8.28194 -1.960722,-2.54662 -5.203371,-6.79506 -7.205889,-9.441 -5.789424,-7.64959 -10.035192,-13.04859 -10.261391,-13.04858 -0.08131,0 -0.176394,7.76431 -0.211288,17.25401 -0.06236,16.95954 -0.07264,17.26321 -0.60212,17.79323 -0.497003,0.4975 -0.923921,0.54588 -5.518534,0.62544 l -4.979858,0.0862 z"
           id="path19"
           inkscape:label="path_11_n" /><path
           style="fill:#21303d;fill-opacity:1"
           d="m -174.46235,291.85455 c -0.35732,-0.17231 -0.70331,-0.68564 -0.86376,-1.28148 -0.17434,-0.64744 -0.24325,-10.20456 -0.19765,-27.40974 0.0752,-28.38392 0.0223,-27.34982 1.42623,-27.88359 0.39657,-0.15077 8.08352,-0.25191 19.14591,-0.25191 h 18.48331 l 0.81405,0.68497 0.81405,0.68498 v 4.1805 c 0,3.72116 -0.0555,4.24914 -0.50557,4.80513 l -0.50557,0.62462 -13.37208,0.1323 c -8.43492,0.0834 -13.45013,0.22998 -13.58349,0.39687 -0.11628,0.14552 -0.15189,2.7649 -0.0791,5.82083 l 0.13229,5.55625 h 11.59709 11.59709 l 0.63989,0.74236 c 0.61532,0.71386 0.63989,0.89463 0.63989,4.70838 0,3.85806 -0.0177,3.9837 -0.64944,4.61546 l -0.64943,0.64943 h -11.65369 -11.65369 v 6.21771 6.21771 l 12.63385,0.0115 c 12.30592,0.0112 14.59613,0.12593 15.23482,0.76306 0.43255,0.43148 0.57759,7.25233 0.18228,8.57248 -0.54671,1.82583 0.13846,1.76761 -20.56798,1.74753 -12.71117,-0.0123 -18.64889,-0.10746 -19.05928,-0.30537 z"
           id="path18"
           inkscape:label="path_10_e" /></g><g
         id="g28"
         inkscape:label="pomdog"
         transform="matrix(0.55664034,0,0,0.55664034,-174.53435,11.964605)"><path
           style="fill:#21303d;fill-opacity:1"
           d="m 515.77022,245.69847 c -7.27123,-0.39666 -16.98106,-2.44997 -24.34167,-5.14747 -4.45051,-1.63102 -10.21918,-4.47127 -13.62604,-6.70889 -3.24233,-2.12956 -7.10192,-6.0378 -8.40432,-8.51026 -3.73106,-7.08298 -2.19896,-16.05592 3.7019,-21.68072 1.82742,-1.74192 5.57379,-3.68057 8.142,-4.21328 2.39886,-0.49758 6.21482,-0.49806 8.21264,-0.001 0.86732,0.21577 4.07726,1.64266 7.1332,3.17086 9.58903,4.79525 14.67068,6.28403 22.75416,6.66634 10.17074,0.48102 18.94651,-2.53709 24.97379,-8.58885 3.58854,-3.60311 6.02106,-8.03042 7.28878,-13.26596 0.58924,-2.43352 1.17516,-7.68929 0.85721,-7.68929 -0.0816,0 -0.8399,0.60651 -1.68511,1.3478 -2.34233,2.05432 -5.9185,4.34695 -9.45586,6.06202 -5.28243,2.56115 -9.46782,3.75011 -15.36422,4.36456 -10.97833,1.14402 -21.29577,-0.48909 -32.14688,-5.08843 -8.23521,-3.49056 -16.27109,-9.40208 -22.21535,-16.34253 -8.71351,-10.17378 -13.5854,-21.72672 -15.50925,-36.7778 -0.64201,-5.0227 -0.41348,-13.42263 0.50748,-18.65312 1.30154,-7.39195 3.09869,-13.2059 5.86836,-18.984719 9.41879,-19.651903 26.30065,-32.528037 47.48835,-36.220302 3.26425,-0.568845 4.70462,-0.672697 9.65729,-0.696302 4.92176,-0.02346 6.34521,0.06359 9.21581,0.563604 5.81961,1.013674 11.72581,3.065609 16.12598,5.602492 2.66144,1.534438 6.50929,4.269967 7.58459,5.392072 0.99006,1.033158 1.33716,1.175166 1.33716,0.547069 0,-1.251537 2.9851,-5.820858 4.90258,-7.504431 4.85314,-4.261107 12.38909,-5.974811 19.1745,-4.360354 5.99242,1.425778 11.20813,6.257284 13.16497,12.195192 l 0.67834,2.058388 0.22832,14.287499 c 0.32128,20.104132 0.11819,92.708492 -0.26791,95.779162 -1.78286,14.17904 -4.92772,23.39329 -11.28956,33.07773 -2.74429,4.17755 -4.82578,6.72765 -8.24433,10.10039 -8.49581,8.38197 -18.7964,14.03505 -31.1792,17.11151 -7.4552,1.85222 -16.34701,2.5937 -25.26771,2.10706 z m 11.49285,-90.71048 c 6.79012,-0.89011 11.99197,-3.35611 16.83032,-7.97864 3.15732,-3.01649 5.95252,-7.45413 7.40797,-11.76084 0.78416,-2.32035 1.57511,-7.03867 1.57511,-9.39615 0,-4.36435 -1.4446,-10.10283 -3.48804,-13.85578 -7.81826,-14.358887 -24.59893,-19.862934 -38.79567,-12.724953 -6.96203,3.500443 -12.84036,10.590063 -15.11581,18.230603 -2.99854,10.06855 -0.27699,21.32064 6.9773,28.84722 4.49729,4.66608 10.33108,7.60696 17.08472,8.6126 3.32154,0.49458 3.93301,0.49669 7.5241,0.0259 z"
           id="path23-7"
           inkscape:label="path_05_g" /><path
           style="fill:#21303d;fill-opacity:1"
           d="m 369.32334,193.85677 c -13.45838,-1.32541 -24.74378,-5.70243 -35.71875,-13.85344 -2.96363,-2.20105 -8.86005,-7.86126 -11.14966,-10.70299 -5.74747,-7.13341 -10.44517,-16.35274 -12.64879,-24.82351 -1.71249,-6.58287 -2.28611,-11.14899 -2.28547,-18.19275 9.4e-4,-10.37913 1.72036,-18.89266 5.6048,-27.751553 2.35333,-5.367009 6.10983,-11.727736 8.92419,-15.11095 10.14276,-12.192861 22.36391,-19.994493 36.89528,-23.552898 5.91757,-1.449078 10.00383,-1.921649 16.7284,-1.93462 11.80692,-0.02277 21.37277,2.086779 30.95625,6.826762 12.80762,6.33464 22.67631,15.580009 29.23878,27.392006 4.03313,7.259358 7.0362,15.923573 8.03882,23.192973 0.6401,4.64095 1.00705,10.36449 0.82852,12.92265 -0.44707,6.4057 -1.89895,14.7059 -3.3554,19.18229 -2.42352,7.44871 -6.76276,15.48599 -11.67709,21.62867 -2.24389,2.80477 -8.36516,8.87155 -10.7758,10.6799 -11.36576,8.52604 -21.91439,12.63926 -36.17889,14.10721 -4.77064,0.49094 -8.36766,0.48833 -13.42519,-0.01 z m 10.98004,-37.81992 c 6.71758,-1.08941 12.20461,-3.86399 16.80919,-8.49978 5.62007,-5.65815 8.60479,-12.99869 8.64162,-21.25299 0.0296,-6.63845 -1.61473,-11.97976 -5.38847,-17.50323 -4.26584,-6.24377 -10.99744,-10.657533 -18.69484,-12.257821 -7.60928,-1.581967 -16.83316,0.557562 -23.25032,5.393031 -6.21833,4.68566 -10.32233,11.3836 -11.71542,19.12018 -0.666,3.69865 -0.6756,6.75306 -0.0324,10.29624 0.62031,3.41688 1.31951,5.5152 2.85824,8.57764 1.56422,3.11316 3.21382,5.30846 6.07844,8.08924 2.7131,2.6337 3.93995,3.51194 7.14556,5.11515 5.69168,2.84658 11.77191,3.85912 17.54836,2.92234 z"
           id="path24-1"
           inkscape:label="path_04_o" /><path
           style="fill:#21303d;fill-opacity:1"
           d="m 210.97021,193.48534 c -8.51259,-1.14791 -17.24631,-4.27839 -25.17452,-9.02346 -8.96874,-5.36783 -17.26387,-13.6639 -22.72104,-22.72364 -9.19791,-15.26993 -11.97099,-34.36858 -7.64497,-52.65208 1.08721,-4.59498 1.87809,-6.96549 3.73263,-11.187751 3.76558,-8.573156 8.75125,-15.712629 15.47167,-22.15541 4.7416,-4.545712 9.71634,-7.984658 16.09561,-11.126612 9.13078,-4.497141 18.35884,-6.64876 28.575,-6.662556 7.06164,-0.0095 12.18127,0.778956 18.52083,2.852456 4.24644,1.388898 10.99466,5.194887 14.2875,8.058142 l 1.32292,1.150328 0.1395,-21.143986 c 0.13821,-20.946817 0.14503,-21.161983 0.73182,-23.07405 0.8536,-2.781522 1.5427,-4.17299 3.12634,-6.312929 2.4039,-3.248316 6.52548,-5.885899 10.93812,-6.999786 1.90693,-0.481371 2.76307,-0.546238 5.82083,-0.441034 3.10857,0.106953 3.90327,0.231276 5.97927,0.935406 3.36682,1.141947 5.47215,2.45394 7.96815,4.965588 1.77259,1.783697 2.3753,2.619178 3.35836,4.655404 2.19267,4.541696 2.0227,-2.221858 2.01626,80.23216 -0.006,71.89681 -0.0159,73.37234 -0.52545,75.67732 -1.14015,5.15718 -4.88544,10.105 -9.51813,12.5742 -2.88497,1.53768 -5.3895,2.18634 -9.0007,2.33113 -3.68076,0.14759 -6.45198,-0.33398 -9.38411,-1.6307 -3.60402,-1.59387 -7.01823,-4.8169 -8.867,-8.37047 l -1.08156,-2.07888 -1.6446,1.33508 c -7.50997,6.09656 -15.86185,9.65327 -25.69455,10.94223 -4.25409,0.55766 -12.19911,0.49813 -16.82818,-0.1261 z m 15.875,-37.6039 c 11.01984,-1.43742 20.28264,-8.83855 24.07832,-19.23897 3.36228,-9.21287 2.18824,-19.08221 -3.25411,-27.355 -1.92598,-2.92765 -3.92453,-5.06196 -6.72531,-7.18217 -9.16996,-6.94174 -21.01634,-8.038887 -31.42911,-2.910796 -8.41413,4.143806 -14.62649,12.547486 -16.13027,21.820006 -1.90627,11.7543 3.0684,23.53966 12.69737,30.08104 3.88152,2.63688 9.2525,4.58274 13.88395,5.03002 2.44955,0.23657 3.47217,0.20028 6.87916,-0.24413 z"
           id="path26"
           inkscape:label="path_03_d" /><path
           style="fill:#f0a550;fill-opacity:1"
           d="m -52.819376,193.18834 c -8.005962,-0.67622 -14.590536,-5.9986 -16.979741,-13.7249 l -0.613047,-1.98249 -0.07763,-50.93229 c -0.07735,-50.749767 -0.07566,-50.940919 0.471836,-53.33976 1.393778,-6.106803 5.407089,-10.75618 11.379444,-13.182966 4.903053,-1.992289 11.485323,-1.865007 16.137886,0.312059 4.536026,2.122534 8.39787,6.244331 10.038585,10.714313 0.349608,0.952476 0.586628,0.918817 1.591844,-0.226061 2.420489,-2.756785 7.522091,-6.444992 11.529578,-8.335316 3.515108,-1.658071 7.659341,-3.002877 11.5004107,-3.73189 4.4301313,-0.840814 13.3085927,-0.836385 17.800369,0.0089 9.4598873,1.780167 18.4512943,6.488995 25.2656063,13.231676 1.572992,1.556457 1.805712,1.820273 4.415788,5.005836 0.864431,1.055026 1.655362,1.918229 1.757624,1.918229 0.102262,0 0.303729,-0.327422 0.447703,-0.727604 0.513685,-1.427805 6.854684,-7.637757 10.637911,-10.418062 1.454684,-1.069051 5.520686,-3.52416 7.381579,-4.4571 5.762142,-2.888792 14.475131,-5.052009 21.722588,-5.393174 4.845873,-0.228114 13.258446,0.66607 17.462501,1.856112 10.379751,2.938198 19.033031,8.440956 25.543341,16.243427 7.2907,8.737739 11.28242,18.538179 12.70099,31.183351 0.33931,3.02461 0.4049,8.80345 0.41319,36.40367 0.0108,35.91823 0.0787,34.24454 -1.54248,38.02502 -2.51362,5.86163 -6.62153,9.33543 -12.93275,10.93641 -11.91412,3.02226 -23.428017,-4.24713 -24.956095,-15.75622 -0.162313,-1.2225 -0.254641,-12.95571 -0.240478,-30.56053 0.01265,-15.71689 -0.06186,-29.34955 -0.165557,-30.29479 -0.227782,-2.07627 -1.025577,-5.35399 -1.751293,-7.19515 -2.177369,-5.52403 -7.098967,-10.179942 -12.882671,-12.187225 -2.059961,-0.714927 -2.734419,-0.815081 -6.22755,-0.92477 -3.391829,-0.106508 -4.258101,-0.04428 -6.456917,0.463819 -8.23104,1.902021 -14.565497,8.840076 -16.547871,18.124696 -0.185138,0.8671 -0.340822,11.94325 -0.451851,32.14687 -0.165603,30.13419 -0.181661,30.86624 -0.7176,32.71364 -0.909177,3.13395 -2.598685,5.99225 -4.986128,8.43549 -1.794572,1.83651 -2.519728,2.36482 -4.705558,3.42816 -3.356267,1.63273 -6.054551,2.23844 -10.010522,2.24717 -2.516358,0.006 -3.498036,-0.11457 -5.370138,-0.65708 -5.78766,-1.6772 -9.784331,-4.97273 -12.190334,-10.05176 C 13.4988,178.12906 13.591573,179.75241 13.586735,147.74904 13.584369,132.087 13.471648,117.9336 13.336247,116.29701 12.804654,109.8717 10.630184,105.19262 6.3377058,101.23737 3.8431223,98.938761 1.744642,97.690497 -1.4772711,96.58869 -3.941311,95.746054 -4.1149104,95.724702 -8.5016666,95.724702 c -4.2248234,0 -4.6344634,0.04527 -6.7468754,0.745656 -6.926988,2.296684 -12.163996,7.768842 -14.243388,14.882932 -1.139701,3.89918 -1.169171,4.76176 -1.210692,35.43599 -0.03959,29.24912 -0.04209,29.3775 -0.61459,31.51548 -2.714057,10.13565 -10.870661,15.78157 -21.502164,14.88358 z"
           id="path28"
           inkscape:label="path_02_m" /><path
           style="fill:#f0a550;fill-opacity:1"
           d="m -157.72667,193.83431 c -4.92268,-0.37231 -11.52622,-1.49556 -15.41156,-2.62149 -3.25022,-0.94188 -9.23995,-3.34511 -12.61365,-5.06091 -9.71041,-4.93855 -18.58186,-12.86048 -24.67321,-22.03242 -2.69993,-4.06536 -3.0733,-4.70086 -4.58577,-7.80521 -3.45694,-7.09535 -5.79904,-15.41539 -6.59153,-23.41562 -0.41531,-4.1926 -0.15657,-12.867 0.49325,-16.53646 1.9956,-11.26891 4.48476,-17.982444 9.84551,-26.554351 5.07928,-8.121842 13.07731,-16.335451 20.27866,-20.825264 8.82126,-5.499777 17.44,-8.731981 27.56976,-10.33922 4.30528,-0.683099 16.54684,-0.686547 20.76979,-0.0059 9.59849,1.547179 17.39215,4.319804 25.4,9.036147 14.70077,8.658233 25.925024,23.564579 30.38608,40.354168 1.698318,6.39177 2.278368,10.99722 2.282689,18.12395 0.0077,12.69934 -2.919689,23.93097 -8.930379,34.26355 -3.351614,5.76153 -6.65357,9.99397 -11.47867,14.71332 -12.39828,12.12654 -29.63689,18.90219 -47.84618,18.80598 -2.11005,-0.0111 -4.31271,-0.0563 -4.89479,-0.10032 z m 11.50938,-38.15084 c 5.64557,-1.31729 9.32879,-3.34376 13.72853,-7.55328 4.64541,-4.44457 7.51952,-9.60746 8.73935,-15.69887 1.02397,-5.11337 0.90459,-9.30119 -0.41282,-14.48162 -1.72645,-6.78891 -6.66398,-13.45575 -13.05923,-17.63308 -2.83671,-1.85292 -5.90082,-3.141891 -9.09759,-3.827054 -2.67197,-0.572686 -8.33556,-0.775114 -10.95801,-0.391662 -10.97559,1.604844 -20.98542,10.126306 -24.11447,20.528876 -0.30641,1.01865 -0.67539,2.20928 -0.81997,2.64584 -0.14459,0.43656 -0.39879,2.25976 -0.56489,4.05156 -0.96552,10.41492 3.13837,20.39237 10.98359,26.70353 3.63913,2.92753 7.45633,4.73267 12.21405,5.776 2.57299,0.56423 3.38587,0.62468 7.01146,0.52137 2.79102,-0.0795 4.81943,-0.28448 6.35,-0.64161 z"
           id="path25"
           inkscape:label="path_01_o" /><path
           style="fill:#f0a550;fill-opacity:1"
           d="m -349.94647,193.30533 c -5.83992,-0.93528 -10.46389,-3.36517 -13.60492,-7.14936 -1.8634,-2.24495 -2.86648,-4.15476 -3.72626,-7.09463 l -0.69432,-2.37414 0.0105,-73.57236 c 0.0113,-79.369092 -0.0632,-74.999857 1.3419,-78.755187 1.17109,-3.130008 3.92004,-6.470672 6.92019,-8.409765 2.08254,-1.346012 5.52465,-2.560678 8.21093,-2.897509 2.92203,-0.366392 56.49394,-0.36937 61.33785,-0.0034 6.82305,0.515484 15.00094,2.231141 20.84274,4.37264 12.43068,4.556863 23.75735,13.363442 30.26894,23.534343 2.1919,3.42368 2.80896,4.486135 4.14905,7.14375 2.73926,5.432417 4.29852,10.357016 5.9061,18.653125 0.52971,2.733662 0.58923,3.848917 0.58596,10.980208 -0.003,7.445113 -0.0468,8.167281 -0.69897,11.641667 -0.76698,4.085909 -1.43502,7.194635 -1.67726,7.805208 -0.0866,0.218281 -0.36769,1.170781 -0.62463,2.116667 -1.11387,4.100493 -3.86955,10.130223 -6.71099,14.684373 -6.71126,10.75654 -16.60676,18.97377 -29.12088,24.18201 -6.24242,2.59802 -14.45929,4.53796 -20.93569,4.94275 -1.4552,0.091 -2.88395,0.20398 -3.175,0.25116 -0.29104,0.0472 -8.23353,0.0947 -17.64999,0.10546 l -17.12082,0.0197 -0.0881,16.99948 c -0.0846,16.33775 -0.10926,17.06184 -0.63247,18.60134 -2.42016,7.12103 -7.65669,11.95086 -14.75054,13.60493 -2.1662,0.50509 -6.8884,0.85381 -8.36333,0.61759 z m 57.90298,-88.68465 c 2.95034,-0.43984 6.4995,-1.62865 9.40473,-3.15016 4.06747,-2.130189 8.00696,-6.466187 10.18735,-11.212697 3.65481,-7.956211 3.08478,-18.718188 -1.38514,-26.150829 -4.63514,-7.707362 -11.9222,-11.811034 -22.08706,-12.438225 -1.99085,-0.122839 -9.57285,-0.180872 -16.8489,-0.128963 l -13.22916,0.09438 -0.0674,26.603346 -0.0674,26.603348 4.82991,0.0721 c 11.91331,0.17789 27.12861,0.0259 29.26309,-0.29232 z"
           id="path27"
           inkscape:label="path_00_p" /></g></g><g
       id="g8"
       transform="matrix(0.18806503,0,0,0.18806503,94.485166,133.71727)"
       style="display:inline"
       inkscape:label="logo_symbol"><ellipse
         style="display:inline;fill:#f0a651;fill-opacity:1;stroke-width:7.11237"
         id="path24"
         cx="105.46474"
         cy="109.79755"
         rx="701.15179"
         ry="688.1297"
         transform="translate(-5.7604188e-6)"
         inkscape:label="path_brown_base" /><path
         d="m 109.36004,101.25296 c -20.133405,-0.29101 -32.708475,0.87842 -50.312144,4.674 -14.955773,3.22466 -25.509678,6.58945 -41.936861,13.37627 -5.483951,2.26567 -24.7922619,12.0038 -30.86874,15.56902 -9.529026,5.59091 -13.863149,8.12145 -15.170581,8.85889 -0.679097,0.38303 -2.900497,2.03959 -4.937789,3.6793 -8.088988,6.5104 -16.489283,10.4927 -26.812993,12.71405 -3.226782,0.69431 -4.747332,0.79791 -11.815522,0.80785 -9.202205,0.0129 -12.037096,-0.36524 -18.608074,-2.4895 -4.861371,-1.57157 -11.790716,-5.06238 -15.849286,-7.9851 -1.68173,-1.21107 -4.98305,-3.94931 -7.33936,-6.08362 -2.35632,-2.13431 -4.94948,-4.24564 -5.76213,-4.69048 -0.81266,-0.44484 -2.98736,-1.65776 -4.83063,-2.69559 -23.18622,-13.05475 -51.28202,-22.68391 -77.25703,-26.48051 -27.89014,-4.07653 -56.92956,-2.3462 -83.38186,4.96801 -5.56064,1.53755 -18.2017,5.88018 -22.97982,7.89442 -4.39228,1.85158 -15.53065,7.41972 -19.73742,9.86734 -12.68649,7.38139 -27.00809,19.60413 -27.00809,23.05126 0,2.43173 1.40489,3.5424 5.64672,4.46517 13.38381,2.91153 24.05147,6.57768 35.07287,12.05458 5.11267,2.54065 6.55349,3.58136 6.55349,4.7317 0,1.38357 -1.23176,2.14459 -5.40491,3.34407 -28.50167,8.19219 -54.64006,21.53623 -76.57008,39.09014 -21.49529,17.20593 -38.81943,37.55976 -51.0513,59.97615 -12.09249,22.16096 -19.65644,45.95151 -21.84773,68.71138 -0.55585,5.77328 -0.56647,20.9712 -0.0165,25.3704 0.55559,4.44389 1.88979,9.74367 2.83572,11.27421 0.71377,1.15491 2.55606,2.30815 3.69029,2.30815 0.31793,0 2.91342,-2.18436 5.76763,-4.85536 6.35029,-5.94269 9.91317,-9.09417 13.8324,-12.23319 5.0933,-4.07936 14.02025,-9.80805 19.93251,-12.79099 6.75916,-3.41023 15.12587,-6.80904 16.75881,-6.80904 1.38926,0 2.46752,0.85137 2.46752,1.94819 0,0.42988 -1.12314,2.94734 -2.49775,5.59451 -5.58108,10.74776 -9.36883,20.02167 -12.62337,30.90996 -9.36466,31.33 -9.37224,64.80239 -0.022,95.2496 3.61463,11.77027 6.92222,19.5636 12.38706,29.17884 3.03931,5.34758 4.57709,7.27103 6.11934,7.65811 1.71728,0.43102 2.40013,-0.44705 4.55585,-5.8583 2.18705,-5.48988 4.60667,-10.29662 7.71856,-15.32721 4.84422,-7.83103 11.92614,-15.65144 14.17313,-15.65144 0.47401,0 1.18775,0.4381 1.69539,1.04141 l 0.87654,1.04417 0.16487,11.39236 c 0.17407,12.00271 0.58213,16.72989 2.23396,25.85401 2.05216,11.33537 4.20247,18.768 8.65281,29.92075 6.24583,15.65235 12.47821,26.82599 22.07304,39.57925 7.0306,9.34494 10.51887,13.24267 11.37863,12.71131 0.18726,-0.11573 1.71669,-2.22826 3.39902,-4.69599 8.28658,-12.15518 15.44331,-19.35216 28.19513,-28.36 6.31712,-4.46239 18.5828,-10.31495 26.91467,-12.84045 14.31219,-4.33822 22.7648,-5.60023 37.46619,-5.59451 10.76297,0.004 16.54516,0.58359 26.18925,2.62414 30.24335,6.39904 57.06643,24.19284 74.97636,49.73786 8.06495,11.50307 13.09871,22.27207 17.23142,36.85893 0.96426,3.40346 1.58204,4.27647 7.18549,10.19707 7.392107,7.81049 24.697375,21.05423 25.601215,19.59179 0.140518,-0.22737 0.284745,-5.03801 0.321492,-10.68893 0.04901,-7.53658 0.212359,-11.07449 0.615506,-13.2746 1.768012,-9.64866 4.085209,-13.46556 6.567233,-10.82357 0.471782,0.50219 1.722072,3.76161 3.25339,8.48245 6.581908,20.29112 12.809823,32.83855 23.227119,46.79221 6.845133,9.16886 12.149316,14.95612 16.923675,18.46244 2.09873,1.54132 3.639173,2.04884 4.074981,1.34368 0.103051,-0.16674 0.01629,-2.66685 -0.195093,-5.55605 -0.510075,-6.97158 0.05248,-15.06263 1.211778,-17.42377 0.98293,-2.00193 2.116521,-2.26707 3.47871,-0.8106 0.507071,0.54217 2.546576,3.52598 4.531115,6.63043 6.2650116,9.80045 11.371203,16.29425 19.4406562,24.72467 17.4601568,18.24119 36.5048908,32.14751 63.9522028,46.69879 11.114747,5.89253 18.512455,9.34269 27.02732,12.60139 2.35973,0.90309 4.67147,0.43922 10.76037,-2.15702 10.01808,-4.2716 24.48835,-11.80478 36.15825,-18.82515 19.50122,-11.73153 33.91006,-22.9061 47.45443,-36.80398 8.99193,-9.22663 15.69649,-17.78458 23.22987,-29.65421 2.20818,-3.47921 3.30947,-4.4313 4.43219,-3.83043 1.21578,0.65067 1.74377,2.21228 2.16801,6.40786 0.37169,3.67596 0.21281,14.43392 -0.2418,16.36038 -0.0916,0.38806 0.0595,1.01825 0.33798,1.39863 0.444,0.60656 0.62618,0.6373 1.47007,0.2528 1.6404,-0.74741 5.16348,-3.6285 8.05104,-6.58372 10.04631,-10.28172 17.25819,-20.51188 24.13114,-34.2238 5.59252,-11.15739 9.10458,-20.15938 12.24693,-31.40181 0.7472,-2.67323 1.56803,-3.78921 2.78626,-3.78921 1.82212,0 3.00701,1.88158 4.11071,6.52876 1.28682,5.4182 1.79665,11.49405 1.71187,20.3859 -0.0436,4.5684 0.0379,8.49495 0.18136,8.727 0.52966,0.85701 4.7202,-1.57411 11.29894,-6.55624 5.19542,-3.93454 8.5454,-6.92818 14.58804,-13.0383 4.99428,-5.05005 5.41838,-5.58146 5.927,-7.43553 1.46868,-5.35376 3.13204,-10.72698 4.27008,-13.78569 10.26441,-27.58763 32.31829,-51.80066 59.03639,-64.81776 14.22145,-6.92872 28.58218,-11.07473 44.62695,-12.88442 6.01344,-0.67826 20.18,-0.58321 26.10407,0.17311 15.90762,2.03091 28.03955,5.76268 41.04932,12.63162 15.32204,8.08978 28.77877,20.23131 38.55982,34.79259 1.57751,2.34847 2.65115,3.6161 3.06379,3.6161 2.21545,0 14.6876,-15.92634 21.823,-27.86814 9.92977,-16.61847 16.60184,-33.96776 20.35292,-52.91706 2.0485,-10.34842 2.39156,-13.86755 2.63514,-27.107 l 0.22257,-12.11229 0.98921,-0.85181 c 1.28004,-1.10054 1.9526,-1.07273 3.63258,0.15112 6.25212,4.55461 15.36133,18.26996 19.8913,29.94548 2.37445,6.1199 3.6015,7.17538 5.99294,5.16311 1.89047,-1.59072 4.36469,-5.61237 8.27636,-13.45595 7.85134,-15.7433 13.45316,-36.97279 15.00022,-56.8574 0.52957,-6.80656 0.4488,-22.8692 -0.14563,-28.94528 -1.32545,-13.54813 -4.08931,-26.01176 -8.82593,-39.81007 -2.3493,-6.84376 -4.9788,-12.86952 -10.13387,-23.21887 -2.68709,-5.39462 -2.83299,-6.28924 -1.19254,-7.3641 0.76042,-0.49825 1.04313,-0.50042 2.90442,-0.0137 5.67448,1.48379 16.71673,6.78457 24.20533,11.62042 9.20809,5.94624 16.53138,11.83004 24.43615,19.63026 2.90589,2.86745 5.34485,4.98404 5.90502,5.12464 1.48523,0.37276 3.4275,-0.82222 4.36624,-2.6846 1.92753,-3.82407 2.76642,-11.44082 2.69834,-24.4911 -0.0719,-13.79002 -1.45182,-24.20728 -5.09167,-38.42243 -3.79464,-14.81968 -9.75344,-29.41542 -17.58039,-43.06896 -10.29614,-17.96083 -22.36881,-33.22225 -37.45246,-47.34177 -16.20409,-15.16834 -31.19692,-25.76327 -49.27623,-34.82282 -14.02269,-7.02678 -26.05061,-11.70409 -40.10408,-15.59649 -2.52085,-0.69821 -3.80491,-1.25234 -4.49814,-1.93995 -0.53358,-0.52925 -0.96997,-1.13228 -0.96997,-1.33817 0,-0.85918 2.14834,-2.60628 5.28951,-4.3003 9.28354,-5.0066 18.89144,-8.49876 33.30603,-12.10404 3.33005,-0.83289 6.37597,-1.68352 6.76782,-1.89323 0.39184,-0.20971 1.0117,-0.93805 1.37665,-1.61571 0.64953,-1.2061 0.64948,-1.26079 0,-2.70108 -1.47458,-3.27002 -10.38485,-11.12512 -19.40219,-17.10503 -13.05701,-8.65885 -25.25318,-14.60426 -39.86228,-19.42967 -8.66486,-2.86202 -11.91815,-3.76241 -20.28423,-5.61374 -12.42198,-2.74886 -21.26645,-3.86334 -35.08111,-4.4267 -22.60444,-0.92181 -43.68647,1.62604 -65.70529,7.94113 -14.59857,4.18693 -26.91827,9.06044 -40.56022,16.04713 -11.48026,5.87959 -16.87983,9.13566 -20.33644,12.2689 -5.65805,5.12871 -10.21608,8.16987 -16.64614,11.10385 -11.48482,5.24043 -24.7232,6.70228 -37.3453,4.12444 -10.02602,-2.04764 -16.87755,-5.48714 -28.74744,-14.43143 -9.90796,-7.46592 -36.08708,-21.58476 -51.02932,-27.52192 -9.78636,-3.88851 -16.78311,-6.36981 -22.75449,-8.06753 -22.81695,-6.48709 -35.49295,-8.46771 -56.09351,-8.76547 z"
         style="display:inline;fill:#fef4e6;fill-opacity:1"
         id="path14"
         transform="translate(-5.7604188e-6)"
         sodipodi:nodetypes="ssssssssssssssssssssssssssssssssssssssssscccssssssssssssssssssssssssssssssssssssssssssssssssssssssssccsssssssssssssssssssssssssssssssssssssssss"
         inkscape:label="path_light_neck" /><path
         id="path10"
         style="display:inline;fill:#fef4e6;fill-opacity:1"
         inkscape:label="path_light_ears"
         d="m -202.15758,-370.0435 c -3.73227,-0.0991 -7.05808,0.74388 -10.74388,2.64338 -12.63731,6.51275 -28.05089,41.05813 -35.76256,80.15046 -4.08669,20.7164 -6.03018,41.1031 -6.03691,63.32296 -0.005,16.31914 1.17765,30.35978 3.5529,42.14294 0.5654,2.80483 1.02767,5.20281 1.02767,5.33073 0,0.12793 0.32878,0.65108 0.73092,1.16232 1.45392,1.84836 1.89898,1.55676 10.51581,-6.9272 24.96974,-24.58473 48.02862,-40.55097 72.14064,-49.95218 5.18397,-2.02121 6.21826,-2.61934 6.21826,-3.58313 0,-0.9297 -1.3865,-2.25869 -9.71071,-9.30678 -8.6225,-7.30066 -10.61113,-9.18324 -11.48304,-10.86753 -2.35462,-4.54851 1.79972,-8.79146 14.06047,-14.36548 8.57133,-3.89672 17.06037,-6.63121 27.27737,-8.78745 8.45732,-1.78486 18.92528,-2.84837 28.71722,-2.91541 7.83077,-0.0536 8.77538,-0.18847 8.93033,-1.27498 0.21745,-1.5247 -5.77018,-11.04188 -13.48618,-21.4383 -24.77665,-33.38363 -59.71212,-61.02687 -82.05193,-64.92493 -1.36267,-0.23777 -2.6523,-0.3764 -3.89638,-0.40942 z m 617.50394,1.4948 c -3.31537,-0.0936 -7.24295,0.62291 -11.94467,2.15977 -18.46048,6.03423 -44.70404,26.07677 -65.28489,49.85876 -8.97701,10.37328 -16.74835,21.08342 -22.32309,30.76157 -2.20409,3.82647 -2.52779,4.76619 -1.73386,5.0477 0.24253,0.086 5.20332,0.31623 11.02416,0.51109 13.65141,0.45699 19.21959,1.14799 29.99219,3.71777 9.16433,2.18614 17.69596,5.34771 26.27717,9.74094 8.54432,4.37435 10.57278,6.18139 10.86204,9.66949 0.12576,1.51651 0.004,2.14077 -0.61551,3.14348 -0.79583,1.28768 -5.12944,5.33253 -10.04594,9.37548 -6.24332,5.13402 -10.28497,8.75248 -10.7851,9.65576 -0.49523,0.89443 -0.47743,0.99425 0.26929,1.56349 0.43884,0.33453 1.86629,0.98506 3.1737,1.44534 5.71139,2.01071 18.58274,8.21947 25.66167,12.37882 15.58492,9.1572 30.67721,20.83223 45.15453,34.92998 10.79035,10.50745 11.36714,10.98726 12.38706,10.31248 1.94796,-1.28877 4.69035,-15.98077 6.20452,-33.24558 0.70334,-8.01962 0.5972,-35.3706 -0.17311,-44.80281 -2.05495,-25.16241 -5.89082,-45.65949 -12.48049,-66.67527 -5.24393,-16.72396 -13.40384,-33.24911 -20.29796,-41.10703 -3.56743,-4.06616 -5.78862,-5.71326 -9.98,-7.39981 -1.58335,-0.63712 -3.35249,-0.98524 -5.34171,-1.04142 z"
         transform="translate(-5.7604188e-6)" /><path
         id="path17"
         style="display:inline;fill:#fef4e6;fill-opacity:1"
         inkscape:label="path_light_eyebrow"
         d="m 264.36596,-49.103682 c -10.44188,-0.158643 -24.50915,5.35189 -35.53999,14.414937 -2.65512,2.18148 -8.14223,7.638093 -10.23005,10.175089 -3.35546,4.077341 -7.10346,11.036156 -8.64181,16.0416323 -0.96576,3.1423965 -1.29906,7.87603061 -0.78862,11.2055118 0.76728,5.0047557 4.09014,10.2307699 7.93838,12.4859849 1.68535,0.987684 5.29662,2.270226 7.61689,2.703831 2.52851,0.472522 8.64893,0.03069 13.05203,-0.942494 14.10366,-3.117197 28.87391,-13.6381308 37.8344,-26.9476347 5.06142,-7.5180053 7.34123,-14.0827103 7.35036,-21.1662723 0.0112,-8.696373 -3.84246,-14.121003 -12.02436,-16.92917 -1.94161,-0.666394 -4.15757,-1.004805 -6.56723,-1.041415 z m -319.392806,0.151129 c -2.589219,-0.0018 -5.061544,0.218742 -6.531511,0.662219 -6.620398,1.997268 -10.767805,6.206437 -12.384316,12.571166 -0.80845,3.18313 -0.505866,8.942829 0.695192,13.230637 3.079168,10.992706 12.420586,22.71749923 24.386689,30.6104469 6.155044,4.0599221 12.4647,6.8526051 19.756653,8.7434871 5.042186,1.307492 10.934252,1.432536 14.953505,0.318744 1.426398,-0.395275 3.09154,-0.968278 3.698534,-1.274977 C -6.6920064,14.009289 -3.2221833,9.9005277 -1.705866,5.5554745 -0.56200646,2.2777106 -0.57070978,-3.6823956 -1.725101,-7.6724151 -2.9002957,-11.734345 -6.6649801,-19.155942 -9.3941994,-22.78804 -18.742593,-35.229065 -33.396786,-44.954989 -47.800143,-48.279343 c -1.931488,-0.445796 -4.637483,-0.67144 -7.226703,-0.67321 z"
         transform="translate(-5.7604188e-6)" /><path
         style="display:inline;fill:#202f3c;fill-opacity:1"
         d="m 88.547247,818.82127 c -26.39025,-0.40524 -59.618871,-3.2034 -85.0699217,-7.16367 -13.2106321,-2.05562 -37.3800963,-6.58288 -45.2814673,-8.48181 -2.328333,-0.55957 -7.249583,-1.74381 -10.936111,-2.63165 -16.825838,-4.05222 -28.25069,-7.35456 -50.447217,-14.5817 -13.95408,-4.54341 -43.00807,-15.61593 -55.20973,-21.04051 -1.4552,-0.64695 -4.86833,-2.16295 -7.58472,-3.36888 -2.71639,-1.20593 -7.79639,-3.46338 -11.28889,-5.01655 -3.4925,-1.55317 -6.91572,-2.90104 -7.60715,-2.99527 -0.83075,-0.11322 -2.40404,0.19605 -4.63847,0.9118 -15.14003,4.84979 -32.40738,5.23504 -48.46603,1.08133 -8.98299,-2.32353 -18.58694,-6.91218 -25.47513,-12.1717 -0.85662,-0.65408 -2.13503,-1.28531 -2.84091,-1.40273 -12.23929,-2.03595 -24.56085,-7.60153 -35.23143,-15.91384 -6.3677,-4.9604 -14.07123,-13.62737 -18.90749,-21.27216 -4.42243,-6.99065 -8.24901,-15.8793 -10.2776,-23.87353 -0.46777,-1.84341 -1.03765,-3.57716 -1.26639,-3.85277 -0.22874,-0.27562 -3.61243,-2.92029 -7.51931,-5.87705 -35.3162,-26.72764 -66.57397,-55.78364 -96.5021,-89.70459 -3.28669,-3.72517 -13.31051,-15.73671 -19.43032,-23.28333 -16.44724,-20.28186 -35.41093,-47.05847 -50.34352,-71.08472 -7.23416,-11.63964 -9.70083,-15.8552 -19.61013,-33.51389 -8.65779,-15.42848 -23.06166,-45.35302 -30.64996,-63.67639 -2.32885,-5.62344 -8.52213,-21.37096 -10.05883,-25.57639 -10.79488,-29.54177 -16.25353,-47.32797 -23.91559,-77.92539 -5.62501,-22.46276 -9.74055,-43.77445 -13.76879,-71.29961 -4.14597,-28.32961 -6.87189,-66.95453 -6.87156,-97.36666 4.9e-4,-44.649311 3.98478,-89.580974 11.66834,-131.586113 3.61515,-19.763619 5.55815,-28.588606 11.28605,-51.260467 5.06581,-20.051224 7.63675,-28.830062 14.84561,-50.69231 15.16495,-45.99065 37.37746,-94.41103 63.1963,-137.75972 31.59949,-53.05414 65.03473,-96.18028 107.83014,-139.08369 9.30646,-9.32994 21.03324,-20.47478 26.9658,-25.62761 1.76435,-1.53246 4.55729,-4.00789 6.20653,-5.50094 6.30242,-5.70559 25.60959,-21.51857 34.38909,-28.16539 32.51857,-24.61929 55.16363,-39.25127 92.7873,-59.954 8.98037,-4.94152 32.85258,-16.77581 46.56666,-23.08473 6.22016,-2.86146 29.72467,-12.71321 36.68889,-15.37788 17.17854,-6.5729 39.72099,-14.13902 57.32639,-19.24096 25.234442,-7.3128 51.590263,-13.31502 78.493056,-17.87586 21.44212299,-3.63508 42.616177,-6.45497 59.443055,-7.91641 1.261181,-0.10954 4.912431,-0.43275 8.113889,-0.71824 3.201459,-0.2855 12.488334,-0.8703 20.6375,-1.29956 19.918297,-1.04918 59.84943,-1.14733 77.08194,-0.18945 17.68732,0.98316 31.86407,2.03597 38.80556,2.88184 2.23132,0.2719 5.00944,0.5951 6.17361,0.71821 3.7008,0.39138 23.45135,2.9822 28.39861,3.72526 21.84948,3.2817 46.74189,8.32016 70.53447,14.27685 28.74851,7.19745 65.18969,18.99737 88.69715,28.72077 3.71268,1.53568 9.60783,3.97557 13.10033,5.42198 32.99962,13.6667 72.75762,34.47075 105.48055,55.19449 21.31382,13.49824 45.90845,31.16298 63.53352,45.63202 13.98417,11.4801 20.7218,17.2445 29.21951,24.99885 3.0893,2.81906 7.5343,6.86661 9.87777,8.99456 9.75092,8.85413 28.57777,27.99149 39.71503,40.37003 29.95961,33.2987 53.56836,65.08019 78.25043,105.33875 17.77702,28.99582 32.40917,57.27314 46.5491,89.95833 9.10087,21.03714 14.54963,35.43854 22.29001,58.91389 7.26935,22.046761 12.52277,40.908593 17.98087,64.558332 12.54584,54.3607161 18.51812,107.636116 18.52781,165.276388 0.006,38.6175 -2.9025,72.82535 -9.88497,116.24028 -5.78152,35.94779 -15.42953,74.46755 -27.96592,111.65416 -6.93785,20.57972 -17.73269,47.6478 -26.16813,65.61667 -15.17973,32.33528 -23.89297,48.54577 -41.8113,77.7875 -7.09972,11.58634 -22.9772,35.03103 -28.90838,42.68611 -1.20267,1.55222 -3.26736,4.33035 -4.58821,6.17361 -9.06228,12.64657 -30.39905,38.63534 -44.05697,53.6626 -6.65543,7.32271 -32.10818,32.74646 -39.54906,39.50401 -16.77273,15.2324 -35.00993,30.34933 -48.47759,40.18339 -10.22393,7.4655 -9.30494,6.64101 -10.027,8.99583 -3.37598,11.00997 -4.90896,14.9246 -8.26362,21.10199 -6.3548,11.70196 -16.02565,22.38072 -26.83193,29.62842 -4.17904,2.80285 -12.41996,6.85821 -17.52486,8.62399 -4.08112,1.41165 -9.12313,2.64863 -12.60266,3.09186 -1.09172,0.13907 -2.24769,0.62871 -3.35139,1.41958 -9.37371,6.71684 -17.75033,10.61425 -27.96678,13.01217 -7.84774,1.84195 -17.90445,2.62312 -25.73712,1.99917 -8.33198,-0.66373 -13.44729,-1.61456 -20.37787,-3.7878 l -3.95804,-1.24114 -1.88881,0.7067 c -1.03885,0.38868 -3.46461,1.45035 -5.39058,2.35927 -14.15149,6.67848 -37.12605,16.24575 -53.91622,22.45226 -12.41924,4.59079 -32.7169,11.1526 -47.30497,15.29272 -25.11956,7.12896 -41.86853,10.91385 -68.61528,15.5055 -17.05288,2.92749 -45.61258,6.23682 -62.44167,7.23536 -3.39548,0.20147 -8.63423,0.52292 -11.64166,0.71432 -3.00743,0.19141 -11.42118,0.50618 -18.69722,0.69949 -12.16356,0.32317 -18.59505,0.34551 -33.513893,0.11642 z M 130.88058,781.3111 c 5.52979,-0.19802 12.03854,-0.51773 14.46389,-0.71047 16.50876,-1.31193 18.66728,-1.50354 27.69305,-2.45824 34.44204,-3.64309 74.96806,-11.86052 106.92477,-21.68105 20.22668,-6.21581 55.5294,-18.9406 55.5294,-20.01546 0,-0.19408 -1.84319,-2.28271 -4.09598,-4.64138 -12.16888,-12.74087 -19.37969,-28.6542 -21.84509,-48.20934 -0.81109,-6.43342 -0.55753,-20.12582 0.5063,-27.34028 0.67446,-4.57394 1.06974,-6.28458 3.39576,-14.69584 2.1643,-7.82644 6.77309,-18.55741 11.28276,-26.27042 11.87448,-20.30922 29.13523,-36.39955 50.09097,-46.69439 6.89761,-3.38856 14.81183,-6.62281 19.75556,-8.07336 25.53036,-7.49094 49.11591,-7.54192 73.55416,-0.15898 6.13263,1.8527 15.51041,6.02716 22.04861,9.81481 20.67593,11.97777 37.99402,32.1835 45.28228,52.83269 0.94873,2.68795 2.8845,9.35233 3.3804,11.63785 0.11577,0.53358 0.42831,0.97014 0.69454,0.97014 0.8804,0 15.31128,-11.26461 24.37334,-19.0256 29.82459,-25.54259 55.45096,-53.21206 70.10591,-75.69523 8.38849,-12.86935 15.27881,-26.46145 20.3661,-40.17492 5.28616,-14.24954 9.47996,-30.44802 11.10794,-42.90425 2.14291,-16.39611 2.12399,-32.79261 -0.0562,-48.68333 -1.30656,-9.52316 -1.29308,-9.29978 -0.63789,-10.56677 0.66395,-1.28395 2.47287,-2.19787 3.74534,-1.89227 1.37798,0.33094 9.11163,4.10195 11.78545,5.7467 5.36776,3.3019 14.28124,10.57827 19.22639,15.69515 2.44859,2.53363 3.36953,3.01164 5.80229,3.01164 1.75855,0 2.10215,-0.13134 3.39175,-1.29641 1.78922,-1.61645 2.18687,-2.38456 3.26952,-6.31535 4.59362,-16.67814 5.9421,-42.84063 3.39884,-65.94241 -1.25984,-11.44375 -3.07765,-20.99498 -6.54629,-34.39583 -1.83891,-7.10452 -6.79736,-21.66659 -9.78998,-28.75139 -8.89779,-21.06492 -17.70255,-36.3567 -32.06207,-55.68421 -4.54089,-6.11191 -4.91352,-7.05992 -3.21301,-8.17413 0.84513,-0.55375 1.19206,-0.57113 3.43958,-0.1723 3.60845,0.64033 11.08774,2.88336 16.50691,4.9504 5.72176,2.18245 16.07971,7.24426 21.09412,10.30846 13.8994,8.49362 13.01868,8.02594 15.11437,8.02594 1.83649,0 2.02041,-0.084 3.4498,-1.5758 2.35995,-2.46298 2.6025,-3.74606 2.6025,-13.76698 0,-15.33394 -2.00105,-30.50118 -6.34742,-48.11108 -7.807,-31.63117 -23.03152,-64.00389 -43.15762,-91.768358 C 658.37603,63.440508 633.81814,39.624561 609.6,23.568961 c -5.44978,-3.612977 -5.99722,-4.105186 -5.99722,-5.392181 0,-1.419103 1.15006,-1.80558 7.76111,-2.608112 9.84433,-1.195029 27.0479,-0.84742 39.1581,0.791215 2.2312,0.301904 5.43251,0.49491 7.11403,0.428904 2.72868,-0.107112 3.21985,-0.234297 4.56942,-1.183229 2.91801,-2.051758 3.83107,-5.060334 2.78135,-9.1647106 -2.21064,-8.6434987 -8.43839,-21.3047044 -16.39923,-33.3401274 -17.68972,-26.743818 -42.00617,-49.6757 -71.26672,-67.208827 -6.15261,-3.686684 -19.23519,-10.217593 -25.75278,-12.855943 -5.34519,-2.16376 -6.52639,-2.96437 -6.52639,-4.42354 0,-1.27437 2.87735,-3.56699 17.99167,-14.33537 13.30529,-9.47953 19.1103,-14.13642 24.07411,-19.31267 4.19042,-4.36978 5.35775,-6.42391 5.33779,-9.39282 -0.0178,-2.65458 -0.86775,-4.38761 -3.23997,-6.60654 -5.49791,-5.14266 -17.51894,-10.11335 -29.17055,-12.06201 -7.4304,-1.24269 -21.01886,-1.6793 -26.86037,-0.86305 -1.57932,0.22068 -3.2813,0.29839 -3.78218,0.17267 -1.69576,-0.4256 -1.77754,-1.10651 -1.06036,-8.82872 0.9471,-10.198 0.95802,-45.29792 0.0181,-58.2429 -3.24795,-44.73256 -12.18823,-87.91987 -25.48719,-123.11945 -5.33671,-14.12516 -14.16432,-31.86537 -20.6264,-41.45138 -13.00554,-19.29277 -28.07858,-30.79504 -45.14466,-34.45002 -15.78691,-3.38103 -37.32166,-0.10285 -61.03056,9.29051 -25.91854,10.26882 -53.8691,27.37052 -83.43194,51.0483 -14.12525,11.31335 -31.9033,27.36666 -47.12012,42.54879 -16.10971,16.07298 -25.27618,26.00459 -41.86023,45.35437 -3.9936,4.6596 -5.1154,5.61905 -6.30262,5.39041 -1.58657,-0.30554 -1.85121,-2.87602 -1.19274,-11.58514 0.6736,-8.90926 3.08189,-22.60095 6.70156,-38.1 2.54301,-10.8889 2.66401,-13.02906 0.90623,-16.02848 -1.74871,-2.98395 -4.35882,-4.08106 -9.70134,-4.07778 -10.80187,0.007 -26.02104,4.79799 -40.60157,12.78231 -15.20999,8.32901 -29.11463,19.6759 -42.5766,34.74466 -2.9939,3.35125 -5.55301,6.08965 -5.6869,6.08533 -0.51564,-0.0166 -1.86831,-1.37733 -5.427906,-5.46021 -6.993448,-8.02152 -17.103869,-17.23686 -27.271096,-24.85678 -4.755573,-3.5641 -5.988592,-4.38826 -12.181353,-8.14209 -11.129696,-6.74642 -23.576983,-11.79278 -35.267258,-14.29799 -4.074877,-0.87324 -11.398628,-1.08077 -13.77052,-0.39021 -2.7846412,0.81073 -4.7060442,2.36437 -5.8796356,4.75424 -1.4987255,3.05197 -1.3413841,6.13507 0.7687374,15.06339 3.2485456,13.74519 3.6551683,15.60147 5.0616442,23.10694 1.619742,8.64354 2.498386,15.76141 2.622021,21.24091 0.07779,3.44771 0.01941,3.84462 -0.667034,4.53485 -0.506278,0.50907 -0.985927,0.68229 -1.466744,0.52968 -0.720828,-0.22878 -5.325646,-5.4088 -17.7395432,-19.95544 -18.4775238,-21.65201 -37.3296808,-40.965 -60.4747588,-61.95304 -14.660654,-13.29434 -30.141567,-25.23686 -49.031744,-37.82483 -25.35965,-16.89907 -48.95921,-28.17092 -70.20714,-33.53301 -18.29584,-4.6171 -31.90172,-4.68078 -45.54022,-0.21314 -24.48096,8.01937 -44.96238,33.62241 -61.51953,76.90319 -3.44239,8.99851 -9.01375,26.47442 -11.47155,35.98333 -9.23344,35.72293 -13.95781,67.37313 -15.69225,105.12778 -0.56367,12.26985 -0.2924,33.74757 0.55087,43.61435 0.21104,2.46933 0.16581,2.75641 -0.54658,3.46879 -0.74902,0.74903 -0.92938,0.76677 -5.06898,0.49879 -18.45485,-1.19471 -34.33378,1.41482 -46.97843,7.72042 -8.57082,4.27407 -11.76643,7.64081 -11.79912,12.43098 -0.0177,2.59636 1.24067,4.94698 4.45095,8.31417 6.05207,6.34787 11.49006,10.63388 35.92317,28.31323 5.10412,3.69325 6.52639,5.06206 6.52639,6.28109 0,1.36039 -0.95845,1.99026 -6.95069,4.56783 -20.50889,8.821928 -39.53065,20.666852 -56.37292,35.10365 -6.42589,5.508121 -19.19097,18.173682 -24.14718,23.95892 -11.7516,13.717304 -23.51922,31.89915 -28.79354,44.4881381 -2.13903,5.105541 -3.68012,10.3957227 -3.68012,12.6329883 0,2.4058376 1.1525,4.6561446 3.06512,5.9847726 1.91536,1.330535 5.01393,1.557298 10.86961,0.795472 8.85936,-1.152606 13.9541,-1.449668 24.34166,-1.419303 7.44942,0.02178 12.09806,0.205985 15.69861,0.622079 5.7491,0.664387 6.80307,0.972198 7.33632,2.142569 0.52468,1.151529 -0.12949,1.950333 -3.39122,4.141056 -14.123,9.485625 -27.7033,20.777636 -40.81502,33.937659 -17.65913,17.724182 -30.5829,34.444511 -42.78042,55.347829 -3.09151,5.29804 -11.12744,21.00028 -13.48956,26.35868 -4.97202,11.27887 -10.73716,27.2118 -13.39943,37.03155 -5.33821,19.68999 -8.33445,40.53723 -8.06312,56.10179 0.12087,6.93413 0.16415,7.31316 1.05093,9.20415 1.30367,2.77998 2.66468,3.67224 5.60153,3.67224 2.10209,0 2.4987,-0.12953 4.7625,-1.55538 18.97341,-11.95038 33.60045,-18.66695 46.1472,-21.19028 3.52831,-0.70959 3.87829,-0.72481 4.6743,-0.20325 1.41993,0.93037 1.11585,2.15472 -1.27497,5.13363 -5.28588,6.5861 -14.53876,20.57743 -20.45973,30.93727 -6.19347,10.83663 -12.18084,23.5697 -16.78079,35.68695 -2.75257,7.25083 -7.2184,22.17754 -8.61134,28.78272 -0.37051,1.75695 -1.0619,5.02007 -1.53642,7.25139 -2.83653,13.33813 -3.87279,22.01403 -4.44189,37.18891 -0.62324,16.61844 0.81994,32.88494 4.07145,45.89026 1.85236,7.40906 3.59791,9.70139 7.38735,9.70139 2.31262,0 3.20813,-0.5864 8.62244,-5.64609 9.07437,-8.48002 16.98168,-14.06888 24.64101,-17.41619 3.55291,-1.55271 5.24041,-1.65424 6.43099,-0.38693 1.05548,1.12351 1.06161,2.06123 0.0557,8.51645 -1.66158,10.66309 -2.26664,19.55634 -2.06002,30.27859 0.326,16.9175 2.58611,31.64207 7.42106,48.34804 2.46881,8.53036 3.71029,12.05832 7.38269,20.97968 9.45,22.95684 22.12205,42.63114 41.46342,64.37506 4.84819,5.45042 17.16373,18.63813 18.45902,19.76626 0.45232,0.39394 3.92219,3.72769 7.71082,7.40833 7.61301,7.396 18.91408,17.38743 29.97685,26.50295 11.98561,9.87593 14.08157,11.49678 14.60637,11.29539 0.2731,-0.10479 0.60926,-0.7172 0.74702,-1.3609 0.47963,-2.24109 4.07528,-12.96858 5.47034,-16.32058 3.33916,-8.02318 11.25364,-20.18054 18.13105,-27.85093 5.23682,-5.84064 14.01757,-13.16482 21.19383,-17.67815 4.53772,-2.85389 15.82164,-8.32279 20.99028,-10.17323 5.28236,-1.89115 15.43183,-4.4775 21.51944,-5.4837 13.63395,-2.25352 30.28465,-1.80476 45.01328,1.21319 20.29324,4.15815 40.40946,14.30094 56.588,28.5322 12.88519,11.33431 24.20123,27.11763 30.58655,42.66132 5.93353,14.4439 8.30781,25.70452 8.78746,41.67673 0.5217,17.37249 -3.67535,33.895 -12.35726,48.64683 -2.30078,3.90935 -7.88788,11.00102 -11.27701,14.31382 -1.2845,1.25557 -2.33546,2.40328 -2.33546,2.55047 0,0.64513 6.08523,3.08633 23.98889,9.62354 36.655712,13.3842 69.777637,22.0523 107.9499971,28.25082 42.4378209,6.89115 81.8137209,9.21562 128.0583329,7.55963 z M 93.662524,386.35723 c -11.569017,-1.57124 -22.559868,-5.49844 -32.984722,-11.78595 -11.880373,-7.16537 -22.356332,-17.67 -30.276028,-30.3589 -6.861298,-10.99313 -12.362038,-23.25463 -15.898562,-35.43889 -0.772108,-2.66012 -1.662815,-5.12275 -1.979348,-5.47252 -0.316534,-0.34977 -1.156075,-0.74485 -1.865647,-0.87797 -0.7095714,-0.13311 -3.1995066,-0.79084 -5.5331889,-1.4616 -19.9955531,-5.74727 -37.0243511,-18.0869 -47.8895571,-34.70235 -5.411743,-8.27582 -9.093779,-17.11846 -9.093779,-21.83928 0,-6.52326 3.69776,-11.51991 9.857226,-13.31972 3.890946,-1.13694 8.577919,0.0883 11.839928,3.09511 1.33144,1.22727 2.174289,2.61642 4.460596,7.35174 3.845118,7.96388 6.574702,11.94242 11.76151,17.14316 8.4183361,8.44094 18.2831516,13.60987 30.014914,15.72709 6.103738,1.10154 15.517595,1.10151 21.84777,-6e-5 21.624619,-3.76311 40.907655,-19.02594 47.400211,-37.51801 1.682487,-4.79205 2.826776,-12.08169 2.055695,-13.09571 -0.230887,-0.30363 -2.59416,-1.42663 -5.251718,-2.49555 -9.659172,-3.8851 -16.962634,-8.16936 -24.334999,-14.27507 -7.96072,-6.59298 -14.669707,-16.21039 -17.500785,-25.08759 -1.674601,-5.25091 -1.948999,-7.22123 -1.75598,-12.60884 0.150334,-4.19617 0.32287,-5.30764 1.273692,-8.20505 1.689491,-5.14832 3.906267,-8.76227 7.815273,-12.74102 3.828339,-3.89664 6.75186,-5.89726 12.830465,-8.78012 8.056531,-3.82093 17.781802,-6.46514 28.797312,-7.82971 2.370826,-0.2937 7.894666,-0.45713 15.345838,-0.45405 10.41642,0.004 12.21715,0.0921 17.10972,0.8336 22.74242,3.447 38.17201,11.97282 44.57322,24.6295 1.62121,3.20552 2.7288,7.68906 2.94791,11.9332 0.68464,13.26128 -6.33255,26.93103 -19.93938,38.8427 -6.14569,5.38005 -14.93572,10.38374 -24.38416,13.88058 -2.60695,0.96483 -4.9882,2.00402 -5.29167,2.30932 -0.78206,0.78677 -0.61074,5.30374 0.34299,9.04337 2.07313,8.12886 6.43422,15.51651 13.37165,22.65149 11.40454,11.72929 25.53945,18.34244 42.08568,19.69018 18.40339,1.499 35.6257,-5.20473 47.46952,-18.47737 3.97085,-4.4499 6.94706,-8.98726 9.94107,-15.15564 2.8465,-5.86448 4.39059,-7.84966 7.16044,-9.20592 2.98374,-1.461 6.28483,-1.88635 9.08071,-1.17008 5.67202,1.4531 9.05285,5.22375 9.96449,11.1134 0.3207,2.07189 0.26723,2.84316 -0.39571,5.70843 -1.3275,5.73748 -5.61287,14.57126 -10.26882,21.16797 -3.42353,4.85055 -9.167,11.2246 -13.17775,14.62454 -10.16893,8.62024 -24.07109,15.52724 -36.92741,18.34663 -3.18329,0.69809 -4.04559,1.41016 -4.6051,3.8028 -0.65201,2.78816 -4.13705,13.40998 -5.63063,17.1612 -6.32689,15.89038 -14.41032,28.56904 -24.8534,38.98195 -5.08591,5.07121 -8.46883,7.83651 -14.12337,11.54484 -10.48936,6.87908 -22.00363,11.18826 -34.14932,12.78029 -5.12561,0.67185 -16.268523,0.66864 -21.236796,-0.006 z M 276.5778,161.22372 c -13.85203,-1.29676 -24.33928,-5.50156 -34.96063,-14.01724 -8.7708,-7.03202 -16.63391,-20.33297 -19.52422,-33.02648 -2.28182,-10.02117 -2.1484,-22.234047 0.35125,-32.153066 3.31204,-13.142714 11.08737,-25.926347 20.61971,-33.901445 7.57812,-6.34012 16.11898,-10.623552 24.87084,-12.473273 9.16016,-1.936018 19.41945,-1.59909 28.75138,0.944231 10.8815,2.965637 23.01658,11.337666 30.38503,20.962719 12.18096,15.911398 16.56529,36.821011 11.8984,56.745514 -1.83918,7.85209 -6.44307,17.51686 -11.65788,24.47295 -7.164,9.55613 -19.96471,17.72194 -32.5263,20.74911 -5.60089,1.34975 -13.77688,2.11176 -18.20758,1.69698 z m -357.893053,-0.5087 c -7.764528,-1.05942 -15.879194,-4.08573 -22.930557,-8.55181 -4.28783,-2.71576 -6.68298,-4.63374 -10.97535,-8.78881 -14.94781,-14.46968 -20.92159,-37.74664 -15.59546,-60.768012 3.53573,-15.282669 13.13607,-29.450659 25.68887,-37.911116 10.805096,-7.282527 22.021893,-10.536525 35.020464,-10.159452 14.862264,0.431136 27.661641,5.937152 38.349104,16.496957 9.859892,9.74212 16.193282,22.35787 18.717874,37.284932 0.592366,3.502461 0.762192,5.94791 0.754824,10.869235 -0.01737,11.604206 -2.385942,21.023916 -7.714901,30.681916 -7.881279,14.28373 -18.22827,23.04789 -33.272158,28.18237 -6.595085,2.2509 -9.842333,2.76771 -18.164932,2.89099 -4.074583,0.0603 -8.519583,-0.0419 -9.877778,-0.2272 z"
         id="path8"
         inkscape:label="path_outline"
         sodipodi:nodetypes="ssssssssssssssssssssssssssssssssssssssssssssssssssssssssssscsssssssssssssssssscsssssssssssssssssssssssssssssssssssssssssssssssssssssssssssssssssssssssssssssssssscsssssssssssssssssssssssssssssssssssssssssssssssssssssssssssssssssssssssssssssssssssssssssssssssssssssssssssssssssccsssssssssssssssssssssssssssssssssssssssssssssssss" /><path
         d="m 73.743109,294.55491 c 1.041809,-0.0517 2.142424,-0.0264 3.514431,0.0275 9.546666,0.37495 16.274582,4.22005 22.040071,12.59864 2.536009,3.68541 3.664849,4.93779 4.448679,4.93779 0.73678,0 1.92266,-1.36184 4.88833,-5.62199 4.13097,-5.93409 7.37045,-8.54537 13.24987,-10.67519 3.07874,-1.11528 3.34229,-1.14888 8.64457,-1.13758 6.14899,0.0131 4.5985,-0.35868 18.696,4.47066 4.1716,1.42905 8.5643,2.86487 9.76292,3.19019 1.54219,0.41856 2.24525,0.79619 2.40158,1.28872 0.76431,2.40814 -2.94085,15.10549 -6.49579,22.25989 -9.38851,18.89459 -24.79956,30.41849 -44.11312,32.99004 -7.14262,0.95103 -15.926421,0.13863 -23.595324,-2.18175 -14.345233,-4.34044 -26.482213,-14.82568 -34.045191,-29.41241 -3.97602,-7.66856 -6.447546,-14.98815 -7.1058,-21.04811 -0.299396,-2.75627 0.189,-3.31473 3.775471,-4.34152 1.418402,-0.40608 6.109738,-2.00673 10.427886,-3.55565 7.785935,-2.7928 10.37999,-3.63406 13.505417,-3.78921 z"
         style="display:inline;fill:#ec896e;fill-opacity:1"
         id="path23"
         inkscape:label="path_mouth" /><path
         id="path22"
         style="display:inline;fill:#f0a752;fill-opacity:1"
         d="m -230.6275,581.96337 c -19.01352,1.46535 -33.55261,6.6862 -47.16866,16.94291 -14.78277,11.13558 -24.37382,26.71106 -28.13469,45.69035 -0.6383,3.22117 -0.77496,5.14902 -0.78586,11.12858 -0.0257,14.07399 2.6343,23.79169 9.58706,35.03165 6.69608,10.82501 18.63782,20.03538 29.62398,22.84517 3.68605,0.94273 3.78575,0.82525 3.0006,-3.5474 -0.48264,-2.68819 -0.59714,-5.41066 -0.57704,-13.75822 0.0239,-9.91304 0.0674,-10.59214 0.937,-14.28853 1.31551,-5.59182 2.17921,-7.67063 3.78646,-9.12269 1.28221,-1.15839 3.23495,-1.9844 4.70148,-1.9894 1.81409,-0.006 4.64181,2.6844 5.03671,4.78941 0.13179,0.7025 0.0471,2.88857 -0.1896,4.8581 -0.67375,5.6053 -0.87583,16.46353 -0.38469,20.68816 1.13013,9.72107 4.45299,19.18801 7.66635,21.83673 3.49583,2.88156 11.51262,6.03684 17.5749,6.9162 6.93878,1.00651 10.89299,1.09288 16.48403,0.35996 6.883,-0.90229 11.09441,-2.6781 13.43947,-5.66595 6.52904,-8.31867 9.77453,-22.78719 8.67754,-38.66424 -0.23681,-3.42262 -0.34448,-6.84865 -0.24181,-7.61414 0.60215,-4.48934 5.53994,-6.85893 9.02651,-4.33328 1.73761,1.25872 2.60124,2.84021 3.58313,6.56998 1.20959,4.59465 1.77856,9.79853 1.79706,16.41259 0.0274,9.79431 -0.71649,14.63409 -3.54741,23.07324 -1.48764,4.43473 -1.6355,5.12575 -1.17331,5.50933 0.82657,0.686 8.1787,0.59779 11.59296,-0.14013 17.11807,-3.69975 30.55005,-19.24589 34.81457,-40.29368 0.70127,-3.46108 0.78737,-4.93977 0.78037,-13.24438 -0.007,-8.07879 -0.11589,-9.97089 -0.80235,-13.93407 -2.90997,-16.80022 -10.26075,-31.79701 -22.11426,-45.11057 -12.20244,-13.70549 -31.80953,-25.03033 -49.91646,-28.83537 -9.84033,-2.06791 -18.68326,-2.75698 -27.07404,-2.11031 z m 662.3095,0.033 c -9.35374,0.0637 -18.92144,1.42924 -27.9286,4.09146 -16.4257,4.85489 -30.77737,13.55365 -42.41773,25.71113 -15.8787,16.58411 -24.40025,36.26471 -25.36215,58.56652 -0.17322,4.01598 -0.0724,5.92722 0.54406,10.23005 2.22086,15.50056 6.58125,24.81162 15.78059,33.70172 6.5151,6.2961 13.58446,10.03795 21.65538,11.4583 3.45095,0.60731 7.9862,0.68851 9.35625,0.16762 1.10705,-0.4209 1.1385,-0.2069 -0.86831,-5.99294 -3.68786,-10.63287 -4.62136,-20.97103 -3.00608,-33.31153 0.97814,-7.47285 2.48868,-11.2343 5.19058,-12.93113 0.87615,-0.55023 1.58509,-0.68479 3.09952,-0.58803 2.54568,0.16265 3.88115,1.11287 4.90481,3.49245 0.76902,1.78762 0.77851,1.97824 0.39843,7.32837 -0.63546,8.94495 -0.50613,14.31454 0.48361,20.13585 1.33035,7.82468 3.21357,13.03989 6.55075,18.15194 3.17377,4.86173 4.81145,6.02503 10.93623,7.75978 3.54673,1.00455 6.08004,1.20931 13.39275,1.08537 5.1161,-0.0867 7.90169,-0.2894 9.52387,-0.69244 6.60376,-1.64077 13.37037,-4.72187 16.11857,-7.33936 2.33611,-2.22501 5.28574,-9.88638 6.55074,-17.0226 0.85184,-4.80548 1.03605,-14.29821 0.47537,-24.35097 -0.35169,-6.3055 -0.20285,-6.98468 1.90697,-8.75997 3.29907,-2.77598 7.83587,-1.48668 9.85085,2.8 1.53481,3.26517 2.65011,9.2657 3.20942,17.26441 0.31732,4.53791 0.28785,6.52608 -0.17585,11.38686 -0.30902,3.23939 -0.71245,6.52479 -0.89579,7.3009 -0.64384,2.72548 -0.61017,2.77486 1.72562,2.53072 6.95579,-0.72702 18.03024,-7.07608 24.5653,-14.08246 7.88546,-8.45417 12.97069,-18.59677 15.42612,-30.76707 1.0814,-5.35992 1.15641,-19.49696 0.13464,-25.2385 -2.84552,-15.98968 -11.6068,-31.29891 -23.82339,-41.62636 -9.77205,-8.26094 -18.15583,-12.83966 -30.65166,-16.73958 -8.15577,-2.5454 -17.29714,-3.78418 -26.65087,-3.72051 z"
         inkscape:label="path_brown_legs"
         transform="translate(-5.7604188e-6)" /><path
         id="path16"
         style="display:inline;fill:#fef4e6;fill-opacity:1"
         inkscape:label="path_light_eyes"
         d="m 290.8767,59.53043 c -13.00013,0 -21.57676,12.764238 -16.78904,24.985708 3.09734,7.906476 12.34075,12.585316 20.67167,10.463607 9.284,-2.364435 15.49364,-11.265056 13.93682,-19.976476 -1.5624,-8.742651 -9.31218,-15.472839 -17.81945,-15.472839 z m -351.355173,0.0055 c -7.015495,0.01178 -13.60098,4.088225 -16.514254,10.224549 -2.775047,5.845174 -2.717291,10.860864 0.184103,16.341142 3.778315,7.136644 13.192932,11.038771 20.9437,8.67754 6.790972,-2.068835 11.280053,-6.644479 12.999823,-13.247124 C -40.094776,70.896039 -49.207845,59.517 -60.478473,59.535925 Z"
         transform="translate(-5.7604188e-6)" /></g></g></svg>
