<?xml version="1.0" encoding="UTF-8" standalone="no"?>
<!-- Created with Inkscape (http://www.inkscape.org/) -->

<svg
   width="1024"
   height="320"
   viewBox="0 0 270.93332 84.666669"
   version="1.1"
   id="svg1"
   xml:space="preserve"
   inkscape:version="1.4.3 (0d15f75, 2025-12-25)"
   sodipodi:docname="pomdog-logo-wordmark.svg"
   xmlns:inkscape="http://www.inkscape.org/namespaces/inkscape"
   xmlns:sodipodi="http://sodipodi.sourceforge.net/DTD/sodipodi-0.dtd"
   xmlns="http://www.w3.org/2000/svg"
   xmlns:svg="http://www.w3.org/2000/svg"><sodipodi:namedview
     id="namedview1"
     pagecolor="#ffffff"
     bordercolor="#000000"
     borderopacity="0.25"
     inkscape:showpageshadow="2"
     inkscape:pageopacity="0.0"
     inkscape:pagecheckerboard="0"
     inkscape:deskcolor="#d1d1d1"
     inkscape:document-units="mm"
     inkscape:zoom="0.55748644"
     inkscape:cx="820.64776"
     inkscape:cy="-4.484414"
     inkscape:window-width="1920"
     inkscape:window-height="1129"
     inkscape:window-x="-8"
     inkscape:window-y="-8"
     inkscape:window-maximized="1"
     inkscape:current-layer="layer1"
     showgrid="false" /><defs
     id="defs1" /><g
     inkscape:label="pomdog_logo_wordmark"
     inkscape:groupmode="layer"
     id="layer1"
     transform="matrix(0.5,0,0,0.5,191.5796,-5.5252668)"><g
       id="g29"
       inkscape:label="engine"
       transform="matrix(0.55664034,0,0,0.55664034,-174.53435,11.964605)"><path
         style="fill:#21303d;fill-opacity:1"
         d="m 344.56948,291.50008 -0.64614,-0.68777 v -27.12018 -27.12018 l 0.86407,-0.77206 0.86407,-0.77206 h 18.6693 18.66931 l 0.7734,0.77339 0.77339,0.7734 v 4.25369 c 0,3.9009 -0.0439,4.29757 -0.52916,4.78285 -0.51127,0.51126 -0.89839,0.52996 -11.44323,0.55264 -6.00274,0.0129 -11.56891,0.0619 -12.36927,0.10882 -0.80037,0.0469 -1.96123,0.0959 -2.57969,0.10882 l -1.12448,0.0235 v 5.6577 5.65769 l 0.7276,0.14316 c 0.40019,0.0787 5.65868,0.13335 11.68554,0.12136 l 10.95793,-0.0218 0.61759,0.71799 c 0.58766,0.6832 0.61759,0.91017 0.61759,4.68401 0,3.85806 -0.0177,3.9837 -0.64943,4.61546 l -0.64943,0.64943 -10.66151,0.003 c -5.86383,0.002 -11.11018,0.0771 -11.65857,0.1677 l -0.99706,0.16479 0.071,5.98386 0.071,5.98386 13.37347,0.1323 c 12.13246,0.12001 13.43873,0.17507 14.0767,0.59331 0.9168,0.60103 1.05633,1.44118 0.94823,5.70951 -0.0811,3.20007 -0.13543,3.52096 -0.69056,4.07548 l -0.60257,0.6019 -19.25649,0.0712 -19.2565,0.0712 z"
         id="path22"
         inkscape:label="path_15_e" /><path
         style="fill:#21303d;fill-opacity:1"
         d="m 230.64384,291.92636 c -1.49502,-0.63202 -1.41749,0.91834 -1.41606,-28.31626 l 0.001,-26.86248 0.63507,-0.79375 0.63506,-0.79375 h 5.0909 5.09089 l 1.13153,1.32291 c 0.62234,0.72761 3.96068,5.13292 7.41853,9.78959 3.45785,4.65666 7.49283,10.01448 8.96662,11.90625 1.47379,1.89177 3.94695,5.10646 5.49592,7.14375 1.54896,2.03729 3.17378,4.12088 3.6107,4.63021 l 0.7944,0.92604 0.0108,-17.23475 c 0.0103,-16.55932 0.0306,-17.25923 0.51598,-17.85938 0.49028,-0.60615 0.64018,-0.62711 5.06984,-0.70872 2.51054,-0.0462 4.84673,-0.0133 5.19153,0.0733 0.3448,0.0865 0.86089,0.5411 1.14687,1.01014 0.50785,0.8329 0.52,1.47723 0.52096,27.6271 l 9.9e-4,26.77431 -0.63796,0.74236 -0.63797,0.74235 -4.67983,0.0835 c -4.21971,0.0753 -4.73232,0.0363 -5.21372,-0.39687 -0.29364,-0.26421 -1.81807,-2.14726 -3.38762,-4.18455 -1.56955,-2.03729 -4.00898,-5.19245 -5.42095,-7.01146 -1.41197,-1.81901 -4.81636,-6.28386 -7.56531,-9.92188 -8.58331,-11.35932 -10.83136,-14.28534 -11.02783,-14.35362 -0.10465,-0.0364 -0.19201,7.7309 -0.19413,17.26058 l -0.004,17.32669 -0.59826,0.5988 c -0.5713,0.57181 -0.80964,0.60152 -5.28781,0.65906 -2.57925,0.0331 -4.94469,-0.0476 -5.25654,-0.17943 z"
         id="path21"
         inkscape:label="path_14_n" /><path
         style="fill:#21303d;fill-opacity:1"
         d="m 154.3014,291.77143 c -0.39019,-0.21187 -0.76918,-0.59406 -0.84221,-0.84931 -0.073,-0.25525 -0.1705,-12.49455 -0.2166,-27.19846 -0.0796,-25.39127 -0.0599,-26.77094 0.39302,-27.46233 0.26227,-0.40037 0.77604,-0.8417 1.1417,-0.98073 0.36567,-0.13903 2.51434,-0.25277 4.77483,-0.25277 4.8671,0 5.73521,0.25528 6.16811,1.81383 0.38109,1.37198 0.36943,52.593 -0.0122,53.68778 -0.48896,1.40263 -1.45068,1.64984 -6.37156,1.63779 -3.26945,-0.008 -4.49887,-0.10465 -5.03508,-0.3958 z"
         id="path20"
         inkscape:label="path_13_i" /><path
         style="fill:#21303d;fill-opacity:1"
         d="m 60.554585,292.43371 c -6.310729,-1.32677 -11.261556,-3.91838 -15.362232,-8.04167 -5.730141,-5.76175 -8.410103,-12.35852 -8.391945,-20.65692 0.021,-9.59577 4.05784,-17.81268 11.509744,-23.42786 9.176433,-6.91465 22.978078,-8.0402 33.332133,-2.71829 4.670556,2.40062 8.376279,5.90438 7.953725,7.52022 -0.20214,0.77299 -6.821268,6.85197 -7.460796,6.85197 -0.294639,0 -1.328154,-0.71815 -2.296701,-1.59588 -3.733318,-3.38329 -7.417769,-4.79059 -12.537053,-4.78861 -2.368487,9.1e-4 -3.453104,0.1279 -4.894792,0.5731 -3.161816,0.97638 -5.366371,2.28446 -7.540686,4.47427 -3.086907,3.10891 -4.513192,6.21005 -5.049923,10.97994 -0.498574,4.43078 0.408342,8.81079 2.557381,12.351 2.017249,3.32312 6.049615,6.21848 10.309735,7.40271 3.939593,1.09512 9.191394,0.58166 12.998021,-1.27081 1.63323,-0.7948 4.188472,-3.13838 4.598942,-4.218 0.137769,-0.36236 0.250489,-1.72265 0.250489,-3.02286 v -2.36403 H 74.19563 c -7.804297,0 -7.158753,0.45599 -7.158753,-5.05664 0,-3.42589 0.05924,-3.95375 0.505572,-4.50519 l 0.505572,-0.62463 11.202241,-0.0777 c 6.161232,-0.0428 11.467965,-0.0113 11.79274,0.07 1.308037,0.32721 1.445789,1.19583 1.486644,9.37433 0.04393,8.7942 -0.135981,9.88645 -2.076458,12.60636 -1.258341,1.76377 -3.940981,4.38218 -5.800343,5.66145 -2.955292,2.0333 -8.376103,4.11773 -12.412191,4.7728 -2.730937,0.44323 -8.982834,0.29932 -11.686069,-0.26901 z"
         id="path17"
         inkscape:label="path_12_g" /><path
         style="fill:#21303d;fill-opacity:1"
         d="m -73.284167,291.38386 -0.701876,-0.83413 v -26.73754 c 0,-26.53775 0.0041,-26.74412 0.545195,-27.61967 0.392067,-0.63438 0.807567,-0.93137 1.479348,-1.05739 1.141662,-0.21418 8.775066,0.0174 9.419283,0.2858 0.254989,0.10623 2.048732,2.29365 3.986095,4.86095 1.937363,2.5673 5.291769,6.98954 7.454235,9.8272 2.162467,2.83765 4.883597,6.40953 6.046955,7.9375 4.501849,5.91278 9.11629,11.7978 9.500987,12.11707 0.354083,0.29386 0.398121,0.1182 0.365942,-1.45973 -0.02012,-0.98659 -0.0068,-8.65647 0.02957,-17.04418 0.06315,-14.56083 0.08899,-15.27862 0.571358,-15.875 0.48911,-0.60471 0.647232,-0.62738 4.960938,-0.71106 6.538695,-0.12685 7.136457,0.16395 7.248094,3.52602 0.03382,1.01865 0.04446,13.12662 0.02363,26.9066 l -0.03787,25.05452 -0.637977,0.74236 -0.637978,0.74235 -4.746356,0.0824 c -5.705092,0.099 -5.043209,0.45627 -9.074142,-4.89734 -1.512235,-2.00846 -4.353745,-5.73533 -6.314466,-8.28194 -1.960722,-2.54662 -5.203371,-6.79506 -7.205889,-9.441 -5.789424,-7.64959 -10.035192,-13.04859 -10.261391,-13.04858 -0.08131,0 -0.176394,7.76431 -0.211288,17.25401 -0.06236,16.95954 -0.07264,17.26321 -0.60212,17.79323 -0.497003,0.4975 -0.923921,0.54588 -5.518534,0.62544 l -4.979858,0.0862 z"
         id="path19"
         inkscape:label="path_11_n" /><path
         style="fill:#21303d;fill-opacity:1"
         d="m -174.46235,291.85455 c -0.35732,-0.17231 -0.70331,-0.68564 -0.86376,-1.28148 -0.17434,-0.64744 -0.24325,-10.20456 -0.19765,-27.40974 0.0752,-28.38392 0.0223,-27.34982 1.42623,-27.88359 0.39657,-0.15077 8.08352,-0.25191 19.14591,-0.25191 h 18.48331 l 0.81405,0.68497 0.81405,0.68498 v 4.1805 c 0,3.72116 -0.0555,4.24914 -0.50557,4.80513 l -0.50557,0.62462 -13.37208,0.1323 c -8.43492,0.0834 -13.45013,0.22998 -13.58349,0.39687 -0.11628,0.14552 -0.15189,2.7649 -0.0791,5.82083 l 0.13229,5.55625 h 11.59709 11.59709 l 0.63989,0.74236 c 0.61532,0.71386 0.63989,0.89463 0.63989,4.70838 0,3.85806 -0.0177,3.9837 -0.64944,4.61546 l -0.64943,0.64943 h -11.65369 -11.65369 v 6.21771 6.21771 l 12.63385,0.0115 c 12.30592,0.0112 14.59613,0.12593 15.23482,0.76306 0.43255,0.43148 0.57759,7.25233 0.18228,8.57248 -0.54671,1.82583 0.13846,1.76761 -20.56798,1.74753 -12.71117,-0.0123 -18.64889,-0.10746 -19.05928,-0.30537 z"
         id="path18"
         inkscape:label="path_10_e" /></g><g
       id="g28"
       inkscape:label="pomdog"
       transform="matrix(0.55664034,0,0,0.55664034,-174.53435,11.964605)"><path
         style="fill:#21303d;fill-opacity:1"
         d="m 515.77022,245.69847 c -7.27123,-0.39666 -16.98106,-2.44997 -24.34167,-5.14747 -4.45051,-1.63102 -10.21918,-4.47127 -13.62604,-6.70889 -3.24233,-2.12956 -7.10192,-6.0378 -8.40432,-8.51026 -3.73106,-7.08298 -2.19896,-16.05592 3.7019,-21.68072 1.82742,-1.74192 5.57379,-3.68057 8.142,-4.21328 2.39886,-0.49758 6.21482,-0.49806 8.21264,-0.001 0.86732,0.21577 4.07726,1.64266 7.1332,3.17086 9.58903,4.79525 14.67068,6.28403 22.75416,6.66634 10.17074,0.48102 18.94651,-2.53709 24.97379,-8.58885 3.58854,-3.60311 6.02106,-8.03042 7.28878,-13.26596 0.58924,-2.43352 1.17516,-7.68929 0.85721,-7.68929 -0.0816,0 -0.8399,0.60651 -1.68511,1.3478 -2.34233,2.05432 -5.9185,4.34695 -9.45586,6.06202 -5.28243,2.56115 -9.46782,3.75011 -15.36422,4.36456 -10.97833,1.14402 -21.29577,-0.48909 -32.14688,-5.08843 -8.23521,-3.49056 -16.27109,-9.40208 -22.21535,-16.34253 -8.71351,-10.17378 -13.5854,-21.72672 -15.50925,-36.7778 -0.64201,-5.0227 -0.41348,-13.42263 0.50748,-18.65312 1.30154,-7.39195 3.09869,-13.2059 5.86836,-18.984719 9.41879,-19.651903 26.30065,-32.528037 47.48835,-36.220302 3.26425,-0.568845 4.70462,-0.672697 9.65729,-0.696302 4.92176,-0.02346 6.34521,0.06359 9.21581,0.563604 5.81961,1.013674 11.72581,3.065609 16.12598,5.602492 2.66144,1.534438 6.50929,4.269967 7.58459,5.392072 0.99006,1.033158 1.33716,1.175166 1.33716,0.547069 0,-1.251537 2.9851,-5.820858 4.90258,-7.504431 4.85314,-4.261107 12.38909,-5.974811 19.1745,-4.360354 5.99242,1.425778 11.20813,6.257284 13.16497,12.195192 l 0.67834,2.058388 0.22832,14.287499 c 0.32128,20.104132 0.11819,92.708492 -0.26791,95.779162 -1.78286,14.17904 -4.92772,23.39329 -11.28956,33.07773 -2.74429,4.17755 -4.82578,6.72765 -8.24433,10.10039 -8.49581,8.38197 -18.7964,14.03505 -31.1792,17.11151 -7.4552,1.85222 -16.34701,2.5937 -25.26771,2.10706 z m 11.49285,-90.71048 c 6.79012,-0.89011 11.99197,-3.35611 16.83032,-7.97864 3.15732,-3.01649 5.95252,-7.45413 7.40797,-11.76084 0.78416,-2.32035 1.57511,-7.03867 1.57511,-9.39615 0,-4.36435 -1.4446,-10.10283 -3.48804,-13.85578 -7.81826,-14.358887 -24.59893,-19.862934 -38.79567,-12.724953 -6.96203,3.500443 -12.84036,10.590063 -15.11581,18.230603 -2.99854,10.06855 -0.27699,21.32064 6.9773,28.84722 4.49729,4.66608 10.33108,7.60696 17.08472,8.6126 3.32154,0.49458 3.93301,0.49669 7.5241,0.0259 z"
         id="path23"
         inkscape:label="path_05_g" /><path
         style="fill:#21303d;fill-opacity:1"
         d="m 369.32334,193.85677 c -13.45838,-1.32541 -24.74378,-5.70243 -35.71875,-13.85344 -2.96363,-2.20105 -8.86005,-7.86126 -11.14966,-10.70299 -5.74747,-7.13341 -10.44517,-16.35274 -12.64879,-24.82351 -1.71249,-6.58287 -2.28611,-11.14899 -2.28547,-18.19275 9.4e-4,-10.37913 1.72036,-18.89266 5.6048,-27.751553 2.35333,-5.367009 6.10983,-11.727736 8.92419,-15.11095 10.14276,-12.192861 22.36391,-19.994493 36.89528,-23.552898 5.91757,-1.449078 10.00383,-1.921649 16.7284,-1.93462 11.80692,-0.02277 21.37277,2.086779 30.95625,6.826762 12.80762,6.33464 22.67631,15.580009 29.23878,27.392006 4.03313,7.259358 7.0362,15.923573 8.03882,23.192973 0.6401,4.64095 1.00705,10.36449 0.82852,12.92265 -0.44707,6.4057 -1.89895,14.7059 -3.3554,19.18229 -2.42352,7.44871 -6.76276,15.48599 -11.67709,21.62867 -2.24389,2.80477 -8.36516,8.87155 -10.7758,10.6799 -11.36576,8.52604 -21.91439,12.63926 -36.17889,14.10721 -4.77064,0.49094 -8.36766,0.48833 -13.42519,-0.01 z m 10.98004,-37.81992 c 6.71758,-1.08941 12.20461,-3.86399 16.80919,-8.49978 5.62007,-5.65815 8.60479,-12.99869 8.64162,-21.25299 0.0296,-6.63845 -1.61473,-11.97976 -5.38847,-17.50323 -4.26584,-6.24377 -10.99744,-10.657533 -18.69484,-12.257821 -7.60928,-1.581967 -16.83316,0.557562 -23.25032,5.393031 -6.21833,4.68566 -10.32233,11.3836 -11.71542,19.12018 -0.666,3.69865 -0.6756,6.75306 -0.0324,10.29624 0.62031,3.41688 1.31951,5.5152 2.85824,8.57764 1.56422,3.11316 3.21382,5.30846 6.07844,8.08924 2.7131,2.6337 3.93995,3.51194 7.14556,5.11515 5.69168,2.84658 11.77191,3.85912 17.54836,2.92234 z"
         id="path24"
         inkscape:label="path_04_o" /><path
         style="fill:#21303d;fill-opacity:1"
         d="m 210.97021,193.48534 c -8.51259,-1.14791 -17.24631,-4.27839 -25.17452,-9.02346 -8.96874,-5.36783 -17.26387,-13.6639 -22.72104,-22.72364 -9.19791,-15.26993 -11.97099,-34.36858 -7.64497,-52.65208 1.08721,-4.59498 1.87809,-6.96549 3.73263,-11.187751 3.76558,-8.573156 8.75125,-15.712629 15.47167,-22.15541 4.7416,-4.545712 9.71634,-7.984658 16.09561,-11.126612 9.13078,-4.497141 18.35884,-6.64876 28.575,-6.662556 7.06164,-0.0095 12.18127,0.778956 18.52083,2.852456 4.24644,1.388898 10.99466,5.194887 14.2875,8.058142 l 1.32292,1.150328 0.1395,-21.143986 c 0.13821,-20.946817 0.14503,-21.161983 0.73182,-23.07405 0.8536,-2.781522 1.5427,-4.17299 3.12634,-6.312929 2.4039,-3.248316 6.52548,-5.885899 10.93812,-6.999786 1.90693,-0.481371 2.76307,-0.546238 5.82083,-0.441034 3.10857,0.106953 3.90327,0.231276 5.97927,0.935406 3.36682,1.141947 5.47215,2.45394 7.96815,4.965588 1.77259,1.783697 2.3753,2.619178 3.35836,4.655404 2.19267,4.541696 2.0227,-2.221858 2.01626,80.23216 -0.006,71.89681 -0.0159,73.37234 -0.52545,75.67732 -1.14015,5.15718 -4.88544,10.105 -9.51813,12.5742 -2.88497,1.53768 -5.3895,2.18634 -9.0007,2.33113 -3.68076,0.14759 -6.45198,-0.33398 -9.38411,-1.6307 -3.60402,-1.59387 -7.01823,-4.8169 -8.867,-8.37047 l -1.08156,-2.07888 -1.6446,1.33508 c -7.50997,6.09656 -15.86185,9.65327 -25.69455,10.94223 -4.25409,0.55766 -12.19911,0.49813 -16.82818,-0.1261 z m 15.875,-37.6039 c 11.01984,-1.43742 20.28264,-8.83855 24.07832,-19.23897 3.36228,-9.21287 2.18824,-19.08221 -3.25411,-27.355 -1.92598,-2.92765 -3.92453,-5.06196 -6.72531,-7.18217 -9.16996,-6.94174 -21.01634,-8.038887 -31.42911,-2.910796 -8.41413,4.143806 -14.62649,12.547486 -16.13027,21.820006 -1.90627,11.7543 3.0684,23.53966 12.69737,30.08104 3.88152,2.63688 9.2525,4.58274 13.88395,5.03002 2.44955,0.23657 3.47217,0.20028 6.87916,-0.24413 z"
         id="path26"
         inkscape:label="path_03_d" /><path
         style="fill:#f0a550;fill-opacity:1"
         d="m -52.819376,193.18834 c -8.005962,-0.67622 -14.590536,-5.9986 -16.979741,-13.7249 l -0.613047,-1.98249 -0.07763,-50.93229 c -0.07735,-50.749767 -0.07566,-50.940919 0.471836,-53.33976 1.393778,-6.106803 5.407089,-10.75618 11.379444,-13.182966 4.903053,-1.992289 11.485323,-1.865007 16.137886,0.312059 4.536026,2.122534 8.39787,6.244331 10.038585,10.714313 0.349608,0.952476 0.586628,0.918817 1.591844,-0.226061 2.420489,-2.756785 7.522091,-6.444992 11.529578,-8.335316 3.515108,-1.658071 7.659341,-3.002877 11.5004107,-3.73189 4.4301313,-0.840814 13.3085927,-0.836385 17.800369,0.0089 9.4598873,1.780167 18.4512943,6.488995 25.2656063,13.231676 1.572992,1.556457 1.805712,1.820273 4.415788,5.005836 0.864431,1.055026 1.655362,1.918229 1.757624,1.918229 0.102262,0 0.303729,-0.327422 0.447703,-0.727604 0.513685,-1.427805 6.854684,-7.637757 10.637911,-10.418062 1.454684,-1.069051 5.520686,-3.52416 7.381579,-4.4571 5.762142,-2.888792 14.475131,-5.052009 21.722588,-5.393174 4.845873,-0.228114 13.258446,0.66607 17.462501,1.856112 10.379751,2.938198 19.033031,8.440956 25.543341,16.243427 7.2907,8.737739 11.28242,18.538179 12.70099,31.183351 0.33931,3.02461 0.4049,8.80345 0.41319,36.40367 0.0108,35.91823 0.0787,34.24454 -1.54248,38.02502 -2.51362,5.86163 -6.62153,9.33543 -12.93275,10.93641 -11.91412,3.02226 -23.428017,-4.24713 -24.956095,-15.75622 -0.162313,-1.2225 -0.254641,-12.95571 -0.240478,-30.56053 0.01265,-15.71689 -0.06186,-29.34955 -0.165557,-30.29479 -0.227782,-2.07627 -1.025577,-5.35399 -1.751293,-7.19515 -2.177369,-5.52403 -7.098967,-10.179942 -12.882671,-12.187225 -2.059961,-0.714927 -2.734419,-0.815081 -6.22755,-0.92477 -3.391829,-0.106508 -4.258101,-0.04428 -6.456917,0.463819 -8.23104,1.902021 -14.565497,8.840076 -16.547871,18.124696 -0.185138,0.8671 -0.340822,11.94325 -0.451851,32.14687 -0.165603,30.13419 -0.181661,30.86624 -0.7176,32.71364 -0.909177,3.13395 -2.598685,5.99225 -4.986128,8.43549 -1.794572,1.83651 -2.519728,2.36482 -4.705558,3.42816 -3.356267,1.63273 -6.054551,2.23844 -10.010522,2.24717 -2.516358,0.006 -3.498036,-0.11457 -5.370138,-0.65708 -5.78766,-1.6772 -9.784331,-4.97273 -12.190334,-10.05176 C 13.4988,178.12906 13.591573,179.75241 13.586735,147.74904 13.584369,132.087 13.471648,117.9336 13.336247,116.29701 12.804654,109.8717 10.630184,105.19262 6.3377058,101.23737 3.8431223,98.938761 1.744642,97.690497 -1.4772711,96.58869 -3.941311,95.746054 -4.1149104,95.724702 -8.5016666,95.724702 c -4.2248234,0 -4.6344634,0.04527 -6.7468754,0.745656 -6.926988,2.296684 -12.163996,7.768842 -14.243388,14.882932 -1.139701,3.89918 -1.169171,4.76176 -1.210692,35.43599 -0.03959,29.24912 -0.04209,29.3775 -0.61459,31.51548 -2.714057,10.13565 -10.870661,15.78157 -21.502164,14.88358 z"
         id="path28"
         inkscape:label="path_02_m" /><path
         style="fill:#f0a550;fill-opacity:1"
         d="m -157.72667,193.83431 c -4.92268,-0.37231 -11.52622,-1.49556 -15.41156,-2.62149 -3.25022,-0.94188 -9.23995,-3.34511 -12.61365,-5.06091 -9.71041,-4.93855 -18.58186,-12.86048 -24.67321,-22.03242 -2.69993,-4.06536 -3.0733,-4.70086 -4.58577,-7.80521 -3.45694,-7.09535 -5.79904,-15.41539 -6.59153,-23.41562 -0.41531,-4.1926 -0.15657,-12.867 0.49325,-16.53646 1.9956,-11.26891 4.48476,-17.982444 9.84551,-26.554351 5.07928,-8.121842 13.07731,-16.335451 20.27866,-20.825264 8.82126,-5.499777 17.44,-8.731981 27.56976,-10.33922 4.30528,-0.683099 16.54684,-0.686547 20.76979,-0.0059 9.59849,1.547179 17.39215,4.319804 25.4,9.036147 14.70077,8.658233 25.925024,23.564579 30.38608,40.354168 1.698318,6.39177 2.278368,10.99722 2.282689,18.12395 0.0077,12.69934 -2.919689,23.93097 -8.930379,34.26355 -3.351614,5.76153 -6.65357,9.99397 -11.47867,14.71332 -12.39828,12.12654 -29.63689,18.90219 -47.84618,18.80598 -2.11005,-0.0111 -4.31271,-0.0563 -4.89479,-0.10032 z m 11.50938,-38.15084 c 5.64557,-1.31729 9.32879,-3.34376 13.72853,-7.55328 4.64541,-4.44457 7.51952,-9.60746 8.73935,-15.69887 1.02397,-5.11337 0.90459,-9.30119 -0.41282,-14.48162 -1.72645,-6.78891 -6.66398,-13.45575 -13.05923,-17.63308 -2.83671,-1.85292 -5.90082,-3.141891 -9.09759,-3.827054 -2.67197,-0.572686 -8.33556,-0.775114 -10.95801,-0.391662 -10.97559,1.604844 -20.98542,10.126306 -24.11447,20.528876 -0.30641,1.01865 -0.67539,2.20928 -0.81997,2.64584 -0.14459,0.43656 -0.39879,2.25976 -0.56489,4.05156 -0.96552,10.41492 3.13837,20.39237 10.98359,26.70353 3.63913,2.92753 7.45633,4.73267 12.21405,5.776 2.57299,0.56423 3.38587,0.62468 7.01146,0.52137 2.79102,-0.0795 4.81943,-0.28448 6.35,-0.64161 z"
         id="path25"
         inkscape:label="path_01_o" /><path
         style="fill:#f0a550;fill-opacity:1"
         d="m -349.94647,193.30533 c -5.83992,-0.93528 -10.46389,-3.36517 -13.60492,-7.14936 -1.8634,-2.24495 -2.86648,-4.15476 -3.72626,-7.09463 l -0.69432,-2.37414 0.0105,-73.57236 c 0.0113,-79.369092 -0.0632,-74.999857 1.3419,-78.755187 1.17109,-3.130008 3.92004,-6.470672 6.92019,-8.409765 2.08254,-1.346012 5.52465,-2.560678 8.21093,-2.897509 2.92203,-0.366392 56.49394,-0.36937 61.33785,-0.0034 6.82305,0.515484 15.00094,2.231141 20.84274,4.37264 12.43068,4.556863 23.75735,13.363442 30.26894,23.534343 2.1919,3.42368 2.80896,4.486135 4.14905,7.14375 2.73926,5.432417 4.29852,10.357016 5.9061,18.653125 0.52971,2.733662 0.58923,3.848917 0.58596,10.980208 -0.003,7.445113 -0.0468,8.167281 -0.69897,11.641667 -0.76698,4.085909 -1.43502,7.194635 -1.67726,7.805208 -0.0866,0.218281 -0.36769,1.170781 -0.62463,2.116667 -1.11387,4.100493 -3.86955,10.130223 -6.71099,14.684373 -6.71126,10.75654 -16.60676,18.97377 -29.12088,24.18201 -6.24242,2.59802 -14.45929,4.53796 -20.93569,4.94275 -1.4552,0.091 -2.88395,0.20398 -3.175,0.25116 -0.29104,0.0472 -8.23353,0.0947 -17.64999,0.10546 l -17.12082,0.0197 -0.0881,16.99948 c -0.0846,16.33775 -0.10926,17.06184 -0.63247,18.60134 -2.42016,7.12103 -7.65669,11.95086 -14.75054,13.60493 -2.1662,0.50509 -6.8884,0.85381 -8.36333,0.61759 z m 57.90298,-88.68465 c 2.95034,-0.43984 6.4995,-1.62865 9.40473,-3.15016 4.06747,-2.130189 8.00696,-6.466187 10.18735,-11.212697 3.65481,-7.956211 3.08478,-18.718188 -1.38514,-26.150829 -4.63514,-7.707362 -11.9222,-11.811034 -22.08706,-12.438225 -1.99085,-0.122839 -9.57285,-0.180872 -16.8489,-0.128963 l -13.22916,0.09438 -0.0674,26.603346 -0.0674,26.603348 4.82991,0.0721 c 11.91331,0.17789 27.12861,0.0259 29.26309,-0.29232 z"
         id="path27"
         inkscape:label="path_00_p" /></g></g></svg>
